<svg width="192" height="105" viewBox="0 0 192 105" fill="none" xmlns="http://www.w3.org/2000/svg">
<path d="M72.11 1.31651C77.1159 3.09613 81.7621 5.85904 86.2768 8.62263C86.8228 8.95647 87.3717 9.28528 87.9216 9.61244C88.9453 10.2215 89.9524 10.8506 90.949 11.503C91.35 11.7652 91.7535 12.023 92.159 12.2784C93.918 13.3889 95.6477 14.5401 97.3723 15.7032C97.4849 15.779 97.5974 15.8548 97.7134 15.9329C112.627 25.9862 112.627 25.9862 116.896 31.625C117.008 31.7696 117.008 31.7696 117.123 31.917C118.669 33.9998 119.148 35.9523 118.85 38.5197C118.539 40.6134 117.938 42.6213 117.271 44.625C117.234 44.7388 117.197 44.8526 117.158 44.9698C116.477 47.0569 115.687 49.1155 114.438 50.9336C114.248 51.2298 114.248 51.2298 114.278 51.5171C114.791 52.5316 116.289 53.0407 117.271 53.5C117.119 54.2556 116.922 54.9733 116.654 55.6954C116.598 55.8459 116.598 55.8459 116.54 55.9995C114.647 60.9693 111.7 65.3949 108.521 69.625C108.464 69.7007 108.407 69.7764 108.349 69.8544C106.8 71.9081 105.162 73.9105 103.429 75.8111C103.194 76.0718 102.963 76.3351 102.732 76.6001C102.284 77.1132 101.823 77.6132 101.357 78.1094C101.275 78.1963 101.193 78.2831 101.109 78.3726C100.24 79.2948 99.3653 80.2055 98.4007 81.0298C98.1174 81.2746 97.8431 81.5278 97.5676 81.7813C94.5816 84.4701 90.6699 87.3389 86.5208 87.625C86.4288 87.6315 86.3368 87.6379 86.242 87.6446C85.5757 87.6714 85.1268 87.553 84.5208 87.25C83.8298 86.9134 83.1848 86.9106 82.4617 87.1343C80.0284 88.2279 77.7582 89.6449 75.4729 91.0141C68.9172 94.9371 68.9172 94.9371 65.8958 95C65.9238 93.6581 66.2621 92.7308 67.2083 91.7657C67.5873 91.404 67.9838 91.0735 68.3958 90.75C68.1143 90.8223 67.8331 90.8953 67.552 90.9688C67.467 90.9909 67.382 91.013 67.2944 91.0358C66.7591 91.1778 66.2436 91.3464 65.7239 91.5391C65.077 91.7568 64.5513 91.8551 63.8958 91.625C63.5252 91.4152 63.2168 91.1535 62.8958 90.875C62.6567 90.6766 62.417 90.4787 62.177 90.2813C62.0642 90.1865 61.9514 90.0918 61.8352 89.9942C61.3854 89.6449 61.1668 89.4921 60.5911 89.5235C59.9784 89.6179 59.378 89.772 58.7771 89.9224C58.4282 89.9934 58.1252 90.0152 57.7708 90C58.0421 88.562 58.8064 87.5231 59.7859 86.4781C60.0549 86.1408 60.0549 86.1408 60.0344 85.7295C59.8554 85.2718 59.6881 85.1963 59.2473 84.9922C57.9024 84.3155 56.9322 83.2587 56.3255 81.8594C56.1551 81.2851 56.1142 80.7407 56.1173 80.1454C56.1177 80.0481 56.1181 79.9509 56.1185 79.8506C56.1366 78.4996 56.2854 77.1583 56.4212 75.8151C56.4508 75.5137 56.4804 75.2122 56.5098 74.9107C56.5812 74.1824 56.6536 73.4542 56.7264 72.726C56.8113 71.8754 56.8949 71.0248 56.9783 70.174C57.1272 68.655 57.277 67.136 57.4275 65.6171C57.4365 65.5265 57.4454 65.4359 57.4547 65.3426C57.5001 64.8837 57.5456 64.4249 57.5911 63.966C57.6821 63.047 57.7731 62.1281 57.864 61.2091C57.873 61.1185 57.8819 61.028 57.8912 60.9347C58.041 59.4203 58.1901 57.9058 58.3387 56.3913C58.4219 55.5433 58.5056 54.6953 58.5902 53.8474C58.6697 53.0504 58.7484 52.2533 58.8266 51.4561C58.8553 51.1648 58.8843 50.8735 58.9136 50.5822C59.1297 48.4364 59.2547 46.444 58.8582 44.3077C58.8281 44.1381 58.7983 43.9686 58.7687 43.799C58.7062 43.4414 58.6431 43.084 58.5796 42.7267C58.1206 40.1354 57.6796 37.5543 57.552 34.9219C57.5469 34.8158 57.5417 34.7096 57.5364 34.6003C57.5286 34.4395 57.5286 34.4395 57.5206 34.2756C57.42 32.2454 57.2162 30.2311 56.9951 28.2111C56.9668 27.9518 56.9387 27.6923 56.9108 27.4329C56.8046 26.4501 56.6934 25.468 56.5774 24.4863C56.5393 24.1592 56.5024 23.8319 56.4666 23.5045C56.2426 21.4594 55.9141 19.6133 55.1458 17.7032C54.9904 17.3044 54.8372 16.9048 54.6848 16.5049C54.6301 16.362 54.6301 16.362 54.5742 16.2162C54.0958 14.9441 53.7343 13.6072 53.6145 12.25C53.6054 12.1505 53.5963 12.051 53.5869 11.9484C53.1965 7.01757 53.1965 7.01757 54.0208 4.87504C54.0536 4.78946 54.0864 4.70388 54.1203 4.6157C54.4919 3.66573 54.8841 2.80437 55.5208 2.00004C55.6033 2.00004 55.6858 2.00004 55.7708 2.00004C56.1591 2.83756 56.5019 3.67896 56.7947 4.55473C56.8424 4.69727 56.8901 4.83981 56.9393 4.98668C57.0337 5.27223 57.1266 5.55831 57.2178 5.84495C57.6275 7.08293 58.1234 7.94349 59.2815 8.58549C60.8853 9.30998 62.4191 9.39687 64.1458 9.37504C63.8519 8.5664 62.875 8.23331 62.1458 7.87504C61.1967 7.43734 60.2348 7.02868 59.2708 6.62504C59.6296 6.52014 59.8293 6.50517 60.2161 6.53911C61.2529 6.55069 62.192 5.77892 62.9187 5.10356C63.4232 4.59586 63.8763 4.0493 64.3328 3.49858C66.7862 0.550781 68.4201 0.0546108 72.11 1.31651ZM65.7708 4.12504C65.9572 4.74659 66.2213 5.30235 66.5208 5.87504C66.8508 5.87504 67.1808 5.87504 67.5208 5.87504C67.2733 5.21504 67.0258 4.55504 66.7708 3.87504C66.3703 3.87504 66.134 3.96796 65.7708 4.12504ZM60.7708 13.75C60.7708 14.6988 60.7708 15.6475 60.7708 16.625C61.1833 16.625 61.5958 16.625 62.0208 16.625C62.0208 15.6763 62.0208 14.7275 62.0208 13.75C61.6083 13.75 61.1958 13.75 60.7708 13.75ZM73.6458 18.25C73.522 18.6213 73.3983 18.9925 73.2708 19.375C75.301 20.4267 77.3328 21.4741 79.3801 22.4922C80.4441 23.0214 81.5028 23.558 82.551 24.1179C83.7135 24.7343 84.8948 25.3139 86.0726 25.9003C87.1441 26.434 88.2147 26.9676 89.2708 27.5313C90.1861 28.0195 91.1095 28.4908 92.0364 28.9564C92.1969 29.0371 92.3572 29.1179 92.5175 29.1989C92.7411 29.3118 92.9652 29.424 93.1892 29.5362C93.3194 29.6015 93.4496 29.6669 93.5838 29.7342C93.8767 29.8922 93.8767 29.8922 94.1458 29.875C94.1458 29.5863 94.1458 29.2975 94.1458 29C92.4533 28.067 90.7503 27.1552 89.0415 26.2526C87.8242 25.6097 86.6086 24.9639 85.3958 24.3125C84.1066 23.6203 82.8144 22.9339 81.5208 22.25C80.2522 21.5795 78.9848 20.907 77.7203 20.229C77.5012 20.1115 77.282 19.9941 77.0628 19.8767C76.466 19.5569 75.8697 19.2365 75.2756 18.9117C75.1869 18.8634 75.0981 18.8152 75.0067 18.7655C74.7856 18.6452 74.565 18.5241 74.3445 18.4029C74.0239 18.2234 74.0239 18.2234 73.6458 18.25ZM69.6458 20.125C69.7257 22.0289 69.9298 23.9203 70.127 25.8147C70.1718 26.2455 70.216 26.6764 70.2603 27.1072C70.3466 27.9465 70.4335 28.7858 70.5208 29.625C70.9333 29.625 71.3458 29.625 71.7708 29.625C71.6917 28.5525 71.6124 27.48 71.5328 26.4074C71.4958 25.9093 71.4589 25.4112 71.4222 24.9131C71.3867 24.4317 71.3511 23.9502 71.3152 23.4688C71.3017 23.2859 71.2882 23.1029 71.2747 22.92C71.2061 21.9863 71.1329 21.0548 71.0208 20.125C70.567 20.125 70.1133 20.125 69.6458 20.125ZM91.6458 20.5C92.1295 21.0788 92.6312 21.6278 93.167 22.1585C93.2401 22.2314 93.3131 22.3042 93.3884 22.3793C93.5456 22.5361 93.703 22.6927 93.8604 22.8491C94.1105 23.0975 94.3601 23.3463 94.6096 23.5952C95.2292 24.2132 95.8495 24.8304 96.4697 25.4477C96.9948 25.9703 97.5196 26.4932 98.0441 27.0163C98.2886 27.26 98.5334 27.5033 98.7783 27.7466C99.5112 28.4765 100.23 29.2074 100.896 30C101.083 30.2089 101.27 30.4173 101.458 30.625C101.787 30.9894 102.114 31.3554 102.435 31.7266C103.008 32.3838 103.603 33.02 104.196 33.6591C104.395 33.8741 104.593 34.0898 104.791 34.3057C105.157 34.7056 105.526 35.1033 105.896 35.5C105.981 35.5925 106.067 35.685 106.155 35.7803C107.587 37.2754 109.722 38.8826 111.771 39.375C111.895 39.3338 112.018 39.2925 112.146 39.25C112.333 38.7523 112.442 38.2319 112.562 37.714C112.621 37.4577 112.685 37.2029 112.75 36.9478C113.114 35.4429 112.976 34.3586 112.248 32.9966C111.858 32.3587 111.398 31.8031 110.896 31.25C110.796 31.1397 110.696 31.0293 110.593 30.9156C107.378 27.5452 102.876 25.3083 98.7708 23.25C98.6688 23.1988 98.5669 23.1476 98.4619 23.0948C95.1768 21.3283 95.1768 21.3283 91.6458 20.5ZM66.2708 21.375C66.2109 25.1025 66.2998 28.8221 66.427 32.5469C66.433 32.7238 66.433 32.7238 66.4392 32.9042C66.5009 34.7098 66.5654 36.5153 66.6304 38.3209C66.6572 39.0687 66.6839 39.8165 66.7106 40.5643C66.7161 40.718 66.7216 40.8717 66.7272 41.0301C66.7553 41.8176 66.7833 42.6052 66.8113 43.3927C66.8168 43.5492 66.8224 43.7057 66.8281 43.8669C66.8393 44.1824 66.8504 44.4978 66.8616 44.8132C66.8939 45.7244 66.9268 46.6356 66.9601 47.5468C67.0658 50.4467 67.1616 53.3463 67.2219 56.2476C67.2245 56.3677 67.227 56.4878 67.2296 56.6115C67.3035 60.1827 67.322 63.7534 67.1731 67.3228C67.1393 68.1736 67.14 69.0237 67.1458 69.875C67.187 69.875 67.2283 69.875 67.2708 69.875C68.7424 59.8388 68.7424 59.8388 69.7708 49.75C69.7796 49.6364 69.7884 49.5227 69.7975 49.4056C69.8449 48.7706 69.8768 48.1365 69.8958 47.5C69.8992 47.4064 69.9026 47.3127 69.9061 47.2162C70.1843 38.6396 68.0991 29.7366 66.3958 21.375C66.3545 21.375 66.3133 21.375 66.2708 21.375ZM74.2708 22.625C74.2708 40.5275 74.2708 58.43 74.2708 76.875C75.0681 76.6358 75.7449 76.4286 76.4661 76.0547C76.5509 76.0113 76.6357 75.9679 76.7231 75.9232C81.0936 73.6557 85.0084 70.5386 88.8033 67.428C88.9982 67.2685 89.1938 67.1098 89.3894 66.9512C90.1021 66.3728 90.8011 65.7801 91.4961 65.1807C91.9439 64.7953 92.397 64.4181 92.8567 64.0469C93.4495 63.5657 94.0144 63.0592 94.5764 62.5425C94.9269 62.2216 95.2837 61.9089 95.6423 61.5972C96.0353 61.2527 96.4224 60.9016 96.8098 60.5508C97.0817 60.3074 97.3555 60.0668 97.6306 59.8272C99.0684 58.5705 100.427 57.2311 101.779 55.8829C101.846 55.8156 101.914 55.7484 101.983 55.6791C102.732 54.9337 103.462 54.1812 104.146 53.375C104.258 53.2473 104.371 53.1197 104.484 52.9922C106.07 51.1627 108.085 48.7882 108.055 46.2579C107.903 44.5592 106.005 42.8764 104.779 41.8443C104.5 41.6072 104.234 41.3587 103.966 41.1094C103.153 40.3755 102.276 39.7273 101.402 39.069C101.174 38.8964 100.948 38.722 100.722 38.5459C93.3505 32.7927 85.0251 27.5626 76.5833 23.5469C76.5064 23.5101 76.4296 23.4733 76.3504 23.4354C75.6677 23.1177 74.9868 22.8854 74.2708 22.625ZM59.0208 23.625C59.0208 25.3163 59.0208 27.0075 59.0208 28.75C59.4745 28.75 59.9283 28.75 60.3958 28.75C60.3958 27.0588 60.3958 25.3675 60.3958 23.625C59.942 23.625 59.4883 23.625 59.0208 23.625ZM62.2708 38.125C62.2564 39.7243 62.3016 41.3205 62.3491 42.9189C62.3575 43.2096 62.366 43.5003 62.3744 43.7911C62.3971 44.575 62.4202 45.359 62.4433 46.1429C62.4578 46.6328 62.4722 47.1226 62.4866 47.6124C62.5341 49.2332 62.5819 50.8539 62.6299 52.4747C62.6325 52.5617 62.6351 52.6487 62.6377 52.7384C62.6403 52.8255 62.6429 52.9126 62.6456 53.0024C62.6876 54.42 62.729 55.8376 62.7702 57.2552C62.8125 58.7128 62.8554 60.1704 62.8986 61.6281C62.9229 62.4457 62.9469 63.2632 62.9705 64.0809C62.9926 64.8477 63.0154 65.6145 63.0385 66.3814C63.047 66.6635 63.0552 66.9457 63.0632 67.2278C63.0741 67.6111 63.0857 67.9944 63.0975 68.3777C63.1006 68.4908 63.1036 68.604 63.1067 68.7205C63.0753 69.2127 63.0753 69.2127 63.2708 69.625C63.4607 69.634 63.651 69.6355 63.8411 69.6329C63.9444 69.6317 64.0477 69.6306 64.1541 69.6294C64.2338 69.628 64.3136 69.6265 64.3958 69.625C64.4254 66.7806 64.3423 63.9377 64.2737 61.0943C64.2563 60.3737 64.2393 59.6531 64.2223 58.9324C64.1937 57.724 64.1647 56.5155 64.1356 55.3071C64.1021 53.9157 64.0691 52.5243 64.0363 51.1328C64.0081 49.9308 63.9795 48.7288 63.9507 47.5268C63.9335 46.8121 63.9165 46.0974 63.8997 45.3826C63.8839 44.711 63.8678 44.0393 63.8514 43.3677C63.8455 43.1231 63.8397 42.8786 63.834 42.634C63.7991 41.1289 63.739 39.6277 63.6458 38.125C63.192 38.125 62.7383 38.125 62.2708 38.125ZM108.771 53C108.434 53.3328 108.099 53.6664 107.763 54C107.669 54.093 107.575 54.186 107.478 54.2818C106.96 54.7979 106.465 55.3246 105.988 55.8789C105.603 56.3147 105.191 56.7229 104.779 57.1329C104.696 57.2164 104.612 57.2999 104.527 57.386C104.126 57.7863 103.72 58.1738 103.29 58.5425C102.646 59.0984 102.055 59.7069 101.458 60.3125C100.778 61.0029 100.098 61.6815 99.3613 62.3123C99.0664 62.5692 98.7936 62.8449 98.5208 63.125C98.0727 63.5786 97.6129 64.0051 97.1287 64.4195C96.823 64.6892 96.5405 64.9787 96.2551 65.2696C96.0288 65.4922 95.7956 65.7003 95.5549 65.9073C95.0365 66.358 94.5354 66.8249 94.0364 67.2969C93.3891 67.9066 92.738 68.5106 92.0745 69.1026C91.7153 69.4248 91.3602 69.7514 91.0051 70.0782C90.5154 70.5285 90.0213 70.9727 89.5183 71.4082C89.2318 71.6591 88.9508 71.9156 88.6692 72.1719C88.2364 72.5631 87.7949 72.9382 87.3411 73.3047C86.8657 73.6892 86.4082 74.086 85.9583 74.5C85.4062 75.0075 84.8381 75.4867 84.2547 75.9576C83.9361 76.2172 83.6224 76.4812 83.31 76.7482C82.4003 77.5255 81.4699 78.2716 80.5208 79C80.4268 79.0723 80.3328 79.1445 80.2359 79.219C74.3667 83.7147 74.3667 83.7147 72.0208 83.5C69.7952 82.953 68.0261 81.3792 66.3972 79.8501C66.1865 79.6112 66.1865 79.6112 66.0208 79.625C66.0208 81.1513 66.0208 82.6775 66.0208 84.25C66.4333 84.3325 66.8458 84.415 67.2708 84.5C67.5442 84.7657 67.5442 84.7657 67.6458 85.125C67.633 85.9059 67.397 86.4514 67.0208 87.125C68.0237 86.8767 68.9717 86.5486 69.927 86.1563C70.1436 86.0674 70.1436 86.0674 70.3646 85.9768C74.827 84.1152 79.0362 81.7344 83.0208 79C83.1595 78.9052 83.1595 78.9052 83.3011 78.8085C84.9564 77.6741 86.5605 76.4801 88.1458 75.25C88.2325 75.1828 88.3193 75.1155 88.4087 75.0462C89.8626 73.9167 91.2829 72.7484 92.6843 71.5547C92.8949 71.3758 93.1062 71.1979 93.3176 71.0201C94.6193 69.9208 95.884 68.7752 97.0798 67.5611C97.3808 67.2575 97.6912 66.9734 98.0159 66.6954C98.5375 66.2447 99.0063 65.7558 99.4739 65.25C99.5596 65.158 99.6454 65.066 99.7337 64.9712C99.9102 64.7817 100.087 64.5921 100.263 64.4023C100.507 64.1397 100.753 63.8787 101 63.6182C101.737 62.8384 102.453 62.0534 103.122 61.2139C103.367 60.9109 103.619 60.6159 103.874 60.322C105.348 58.6164 106.631 56.7591 107.86 54.8716C108.009 54.6426 108.161 54.4149 108.313 54.1875C108.394 54.0638 108.476 53.94 108.56 53.8125C108.629 53.7081 108.698 53.6037 108.769 53.4961C108.832 53.3743 108.832 53.3743 108.896 53.25C108.855 53.1675 108.813 53.085 108.771 53ZM71.2708 57.625C71.0957 59.5311 70.9208 61.4372 70.7459 63.3434C70.6647 64.2287 70.5834 65.1141 70.5021 65.9995C70.4311 66.7727 70.3601 67.5458 70.2892 68.319C70.2518 68.7271 70.2143 69.1351 70.1768 69.5431C70.0952 70.4319 70.0139 71.3206 69.9334 72.2095C69.9082 72.4876 69.8829 72.7656 69.8575 73.0437C69.8214 73.4393 69.7858 73.8349 69.7504 74.2305C69.7398 74.3466 69.7291 74.4627 69.7181 74.5824C69.665 75.1828 69.6348 75.7722 69.6458 76.375C70.0995 76.375 70.5533 76.375 71.0208 76.375C71.4243 72.203 71.8184 68.0302 72.196 63.8557C72.2353 63.4216 72.2748 62.9875 72.3145 62.5533C72.3617 62.0375 72.4084 61.5215 72.4546 61.0056C72.4718 60.8153 72.4891 60.6251 72.5066 60.4349C72.5927 59.4965 72.6679 58.5682 72.6458 57.625C72.192 57.625 71.7383 57.625 71.2708 57.625ZM59.7708 64.25C59.7708 69.7363 59.7708 75.2225 59.7708 80.875C60.2245 80.875 60.6783 80.875 61.1458 80.875C61.1458 75.3888 61.1458 69.9025 61.1458 64.25C60.692 64.25 60.2383 64.25 59.7708 64.25ZM103.45 69.3829C102.69 70.0947 101.918 70.7873 101.124 71.4624C100.975 71.5895 100.826 71.7166 100.677 71.8438C100.564 71.9403 100.564 71.9403 100.448 72.0388C99.9552 72.4614 99.4731 72.8939 98.9973 73.336C98.5415 73.7595 98.0762 74.1649 97.5911 74.5547C96.9134 75.1002 96.2797 75.6856 95.6438 76.2784C95.0681 76.815 94.4731 77.328 93.8738 77.8379C93.7248 77.9649 93.5759 78.0918 93.427 78.2188C93.3516 78.2831 93.2761 78.3475 93.1984 78.4138C92.7052 78.8364 92.2231 79.2689 91.7473 79.711C91.2915 80.1345 90.8262 80.5399 90.3411 80.9297C89.7299 81.4211 89.1543 81.9429 88.5835 82.48C88.2009 82.8392 87.8103 83.1781 87.3958 83.5C87.5363 83.8715 87.6736 84.1668 87.8958 84.5C88.5495 84.3124 88.938 83.892 89.4114 83.4297C89.9591 82.906 90.5062 82.3952 91.0989 81.9219C91.7702 81.3857 92.3947 80.8071 93.0227 80.2217C93.5985 79.6851 94.1934 79.1721 94.7927 78.6622C94.9417 78.5352 95.0906 78.4083 95.2395 78.2813C95.315 78.217 95.3904 78.1526 95.4682 78.0863C95.9613 77.6637 96.4434 77.2312 96.9192 76.7891C97.3724 76.3681 97.8348 75.9651 98.3176 75.5782C98.9474 75.0718 99.5336 74.5285 100.122 73.975C100.661 73.4701 101.221 73.0014 101.797 72.5396C102.278 72.1404 102.733 71.7166 103.19 71.2901C103.645 70.8647 104.108 70.4516 104.585 70.0503C104.802 69.859 104.802 69.859 105.021 69.5C104.92 69.3539 104.818 69.2081 104.716 69.0625C104.66 68.9813 104.603 68.9001 104.545 68.8165C104.496 68.7533 104.446 68.6901 104.396 68.625C104.083 68.625 103.684 69.1626 103.45 69.3829ZM67.0208 70.125C67.1458 70.625 67.1458 70.625 67.1458 70.625L67.0208 70.125ZM80.4939 83.8877C80.3896 83.9413 80.2854 83.9948 80.1779 84.05C79.8362 84.2255 79.4949 84.4018 79.1536 84.5782C78.9183 84.6993 78.6829 84.8204 78.4476 84.9414C77.7633 85.2936 77.0795 85.6467 76.3958 86C76.2203 86.0907 76.0447 86.1813 75.8692 86.272C73.9584 87.259 72.0518 88.254 70.1458 89.25C70.1458 89.58 70.1458 89.91 70.1458 90.25C71.7179 89.5122 73.2786 88.7549 74.8308 87.9761C75.0404 87.8712 75.25 87.7663 75.4596 87.6615C76.0024 87.3898 76.5451 87.1179 77.0877 86.8459C77.645 86.5666 78.2024 86.2876 78.7598 86.0086C79.8469 85.4644 80.9339 84.9198 82.0208 84.375C81.9498 83.8588 81.9498 83.8588 81.7708 83.375C81.3092 83.375 80.8979 83.6784 80.4939 83.8877Z" fill="white"/>
<path d="M135.896 0C135.978 0 136.061 0 136.146 0C140.621 9.07104 143.064 19.0881 145.544 28.8436C146.515 32.6645 147.521 36.4707 148.646 40.25C148.682 40.3732 148.719 40.4964 148.757 40.6233C150.024 44.872 151.398 49.0794 153.182 53.1426C153.271 53.375 153.271 53.375 153.271 53.625C153.893 53.1391 154.392 52.6064 154.896 52C154.952 51.9325 155.009 51.8649 155.067 51.7953C156.764 49.7644 158.264 47.6312 159.646 45.375C159.695 45.2957 159.744 45.2164 159.794 45.1347C161.369 42.5752 162.784 39.928 164.146 37.25C164.219 37.1067 164.292 36.9633 164.367 36.8157C165.232 35.1138 166.068 33.4008 166.866 31.6664C167.462 30.3716 168.072 29.0838 168.685 27.7969C169.433 26.2254 170.179 24.6531 170.919 23.0781C170.96 22.9919 171 22.9056 171.042 22.8167C171.245 22.3842 171.449 21.9517 171.652 21.5192C172.024 20.7262 172.398 19.9335 172.771 19.1408C172.978 18.7008 173.185 18.2608 173.392 17.8208C173.475 17.6441 173.558 17.4673 173.641 17.2906C173.683 17.2021 173.725 17.1136 173.768 17.0225C174.245 16.0089 174.722 14.9953 175.199 13.9817C175.237 13.8996 175.276 13.8176 175.316 13.733C175.392 13.571 175.468 13.409 175.545 13.247C175.755 12.8017 175.963 12.3554 176.168 11.9078C176.213 11.8098 176.258 11.7119 176.305 11.6109C176.393 11.421 176.48 11.2307 176.566 11.0402C176.868 10.3891 176.868 10.3891 177.146 10.25C176.971 11.3059 176.733 12.3389 176.466 13.375C176.445 13.4573 176.424 13.5397 176.402 13.6245C173.893 23.3097 169.744 32.5226 165.052 41.3306C164.747 41.9063 164.447 42.4846 164.146 43.0625C162.508 46.2035 162.508 46.2035 161.726 47.6558C161.572 47.9424 161.417 48.229 161.263 48.5156C161.224 48.5885 161.185 48.6614 161.144 48.7364C160.429 50.0667 159.736 51.4078 159.048 52.752C158.513 53.7955 157.971 54.8333 157.404 55.8594C156.642 57.2363 155.922 58.6346 155.213 60.0391C154.417 61.6109 154.417 61.6109 153.965 62.3325C153.013 63.872 153.062 65.1121 153.396 66.875C153.745 66.5668 153.928 66.2356 154.138 65.8218C154.208 65.6849 154.278 65.5479 154.35 65.4069C154.424 65.2597 154.499 65.1125 154.576 64.9609C154.733 64.6519 154.892 64.3433 155.051 64.0347C155.09 63.9572 155.13 63.8796 155.171 63.7998C155.532 63.0998 155.906 62.4083 156.286 61.7188C156.793 60.7977 157.287 59.871 157.771 58.9375C158.32 57.8784 158.884 56.8291 159.458 55.7837C159.907 54.9654 160.342 54.1409 160.771 53.3125C161.32 52.2534 161.884 51.2041 162.458 50.1587C162.907 49.3404 163.342 48.5159 163.771 47.6875C164.32 46.6284 164.884 45.5791 165.458 44.5337C165.907 43.7154 166.342 42.8909 166.771 42.0625C167.32 41.0034 167.884 39.9541 168.458 38.9087C168.907 38.0904 169.342 37.2659 169.771 36.4375C170.32 35.3784 170.884 34.3291 171.458 33.2837C171.907 32.4654 172.342 31.6409 172.771 30.8125C173.32 29.7534 173.884 28.7041 174.458 27.6587C174.972 26.721 175.467 25.7743 175.959 24.8251C176.383 24.0079 176.819 23.1977 177.263 22.3906C177.8 21.4132 178.321 20.4285 178.833 19.4375C179.53 18.0893 180.246 16.7526 180.981 15.4248C181.095 15.2178 181.207 15.0101 181.319 14.8018C181.374 14.6996 181.429 14.5974 181.486 14.4922C181.535 14.4005 181.583 14.3088 181.634 14.2144C181.771 14 181.771 14 182.021 13.875C181.863 14.3757 181.679 14.8421 181.448 15.3135C181.384 15.4452 181.32 15.5768 181.254 15.7125C181.185 15.8538 181.116 15.9951 181.044 16.1406C180.895 16.4476 180.746 16.7548 180.597 17.062C180.559 17.1405 180.522 17.219 180.482 17.2998C180.106 18.0787 179.742 18.863 179.38 19.6484C178.72 21.0774 178.049 22.5005 177.372 23.9219C177.297 24.0806 177.297 24.0806 177.22 24.2425C177.015 24.6735 176.81 25.1045 176.605 25.5355C176.068 26.6638 175.532 27.7927 174.997 28.9219C174.951 29.0201 174.904 29.1183 174.856 29.2195C174.16 30.6905 173.466 32.1627 172.773 33.6357C172.061 35.1509 171.345 36.6642 170.628 38.177C169.965 39.5753 169.304 40.9745 168.646 42.375C167.943 43.871 167.237 45.3657 166.529 46.8594C165.793 48.4109 165.059 49.9629 164.326 51.5156C164.282 51.6081 164.238 51.7005 164.193 51.7957C163.886 52.4471 163.578 53.0986 163.271 53.75C162.919 54.4948 162.568 55.2396 162.216 55.9844C162.173 56.0767 162.129 56.1691 162.084 56.2642C161.348 57.8239 160.609 59.3827 159.871 60.9412C159.375 61.986 158.881 63.031 158.388 64.0771C158.347 64.1642 158.306 64.2513 158.264 64.341C158.06 64.7737 157.858 65.2069 157.657 65.6411C157.259 66.4999 156.849 67.3491 156.409 68.1876C156.186 68.6132 155.969 69.0413 155.752 69.4697C155.646 69.6749 155.538 69.8789 155.427 70.0814C154.813 71.1141 154.813 71.1141 154.693 72.2657C154.883 72.8177 155.176 73.282 155.521 73.75C155.813 73.3797 156.042 73.0011 156.263 72.585C156.335 72.4506 156.407 72.3162 156.481 72.1777C156.559 72.03 156.638 71.8822 156.716 71.7344C156.799 71.5791 156.882 71.4238 156.964 71.2686C157.234 70.7627 157.502 70.2564 157.771 69.75C157.817 69.6637 157.862 69.5773 157.909 69.4884C158.334 68.6868 158.758 67.885 159.182 67.083C159.862 65.7967 160.549 64.5138 161.237 63.2321C161.784 62.2129 162.32 61.1885 162.853 60.1617C163.331 59.2428 163.826 58.3338 164.325 57.4261C164.87 56.4302 165.393 55.4233 165.914 54.4146C166.414 53.4482 166.931 52.4921 167.456 51.5386C167.928 50.6779 168.383 49.8095 168.833 48.9375C169.401 47.8378 169.984 46.748 170.581 45.6636C171.125 44.6718 171.645 43.6688 172.164 42.664C172.603 41.8167 173.053 40.9765 173.513 40.1406C174.073 39.1226 174.614 38.0955 175.146 37.0625C175.736 35.9166 176.341 34.7801 176.962 33.6509C177.432 32.7946 177.885 31.9303 178.333 31.0625C178.901 29.9628 179.484 28.873 180.081 27.7886C180.625 26.7968 181.145 25.7938 181.664 24.789C182.103 23.9417 182.553 23.1015 183.013 22.2656C183.573 21.2476 184.113 20.2204 184.646 19.1875C185.21 18.0957 185.776 17.0051 186.357 15.9219C186.418 15.8048 186.48 15.6877 186.544 15.5671C186.601 15.4609 186.658 15.3546 186.718 15.2451C186.792 15.1055 186.792 15.1055 186.868 14.9631C187.021 14.75 187.021 14.75 187.396 14.625C187.713 14.7426 187.713 14.7426 188.09 14.9277C188.226 14.9941 188.362 15.0605 188.503 15.1289C188.646 15.1998 188.788 15.2707 188.935 15.3438C189.076 15.4127 189.217 15.4817 189.362 15.5527C190 15.8651 190.636 16.1823 191.271 16.5C190.461 18.2289 189.622 19.9414 188.767 21.6484C188.637 21.9084 188.508 22.1683 188.378 22.4283C188.107 22.9692 187.837 23.51 187.566 24.0507C187.223 24.7367 186.88 25.4229 186.537 26.1092C186.269 26.6449 186.002 27.1804 185.734 27.716C185.607 27.9686 185.481 28.2214 185.355 28.4741C184.758 29.6682 184.158 30.8594 183.533 32.0386C182.843 33.3397 182.185 34.6568 181.529 35.975C181.308 36.418 181.087 36.861 180.866 37.3038C180.396 38.2441 179.927 39.1845 179.458 40.125C178.951 41.1414 178.445 42.1578 177.937 43.1739C177.684 43.681 177.431 44.1882 177.179 44.6954C176.547 45.9609 175.909 47.2212 175.246 48.4704C174.531 49.8215 173.854 51.1923 173.172 52.5601C173.023 52.8593 172.873 53.1586 172.724 53.4579C172.374 54.1581 172.024 54.8584 171.674 55.5587C171.276 56.3578 170.876 57.1568 170.477 57.9557C169.658 59.5953 168.839 61.2351 168.021 62.875C168.16 62.7573 168.299 62.6393 168.437 62.5212C168.514 62.4556 168.592 62.3899 168.671 62.3223C174.767 56.9646 178.535 48.067 181.849 40.8438C183.076 38.1692 184.394 35.5406 185.829 32.9709C186.035 32.5996 186.238 32.2267 186.441 31.8535C187.877 29.2306 189.439 26.4376 191.646 24.375C191.823 24.9056 191.594 25.2345 191.374 25.7188C191.309 25.8665 191.309 25.8665 191.242 26.0173C191.097 26.3454 190.949 26.6727 190.802 27C190.699 27.2312 190.596 27.4625 190.493 27.6939C190.278 28.1784 190.062 28.6625 189.846 29.1465C189.537 29.8387 189.231 30.5321 188.926 31.2261C187.843 33.6874 186.747 36.1418 185.635 38.59C185.048 39.8848 184.467 41.1822 183.892 42.4828C183.04 44.4124 182.161 46.3286 181.271 48.2412C180.657 49.559 180.05 50.8791 179.451 52.2031C178.668 53.9298 177.877 55.652 177.081 57.3723C176.986 57.577 176.891 57.7816 176.797 57.9863C176.751 58.0855 176.705 58.1847 176.658 58.2868C176.394 58.8563 176.133 59.4267 175.874 59.998C174.442 63.15 172.903 66.2618 171.211 69.2831C171.001 69.6604 170.794 70.0393 170.587 70.4185C169.53 72.35 168.411 74.2349 167.258 76.1106C167.052 76.4489 166.849 76.7888 166.65 77.1309C165.542 79.026 164.31 80.8386 163.084 82.6588C162.798 83.0836 162.515 83.5099 162.231 83.9365C161.849 84.5106 161.459 85.0784 161.06 85.6406C160.966 85.7733 160.966 85.7733 160.87 85.9086C160.671 86.1893 160.471 86.4697 160.271 86.75C160.203 86.8453 160.135 86.9405 160.065 87.0387C159.197 88.2523 158.312 89.4476 157.396 90.625C157.246 90.8214 157.096 91.0177 156.947 91.2141C156.344 92.0043 155.722 92.7778 155.09 93.5446C154.669 94.0573 154.276 94.5813 153.896 95.125C154.024 95.5391 154.147 95.6256 154.536 95.8359C155.025 96.0253 155.5 96.0794 156.021 96.125C155.879 98.2886 154.782 99.9097 153.254 101.382C151.801 102.643 149.246 104.125 147.271 104.125C147.249 103.583 147.233 103.041 147.223 102.498C147.218 102.315 147.212 102.131 147.205 101.947C147.14 100.342 147.521 99.3055 148.602 98.0894C148.756 97.9307 148.911 97.7733 149.068 97.6172C149.232 97.4474 149.396 97.2773 149.56 97.1069C149.639 97.0255 149.718 96.944 149.799 96.86C151.046 95.5772 151.046 95.5772 151.411 93.9062C151.409 93.7599 151.407 93.6136 151.405 93.4629C151.402 93.3514 151.399 93.2399 151.396 93.125C151.017 93.125 150.81 93.3274 150.497 93.5352C150.304 93.662 150.304 93.662 150.108 93.7915C149.974 93.8809 149.839 93.9704 149.701 94.0625C149.435 94.2385 149.169 94.4143 148.903 94.5898C148.785 94.6684 148.667 94.7469 148.545 94.8279C148.271 95 148.271 95 148.146 95C148.158 91.1031 150.701 87.5024 152.771 84.375C152.634 84.1324 152.495 83.8903 152.357 83.6484C152.28 83.5136 152.203 83.3787 152.124 83.2397C151.939 82.9442 151.78 82.7274 151.521 82.5C151.427 82.573 151.427 82.573 151.331 82.6475C150.606 83.1838 149.848 83.6232 149.052 84.0469C148.95 84.102 148.848 84.1571 148.743 84.2138C148.645 84.2654 148.546 84.317 148.445 84.3701C148.357 84.4163 148.269 84.4624 148.179 84.5099C147.838 84.6483 147.509 84.7003 147.146 84.75C142.751 75.8069 139.023 66.531 135.393 57.2558C135.168 56.6807 134.942 56.1061 134.715 55.5314C131.647 47.7388 128.582 39.9343 125.896 32C125.841 31.8372 125.841 31.8372 125.784 31.6712C124.955 29.2185 124.152 26.7616 123.49 24.2578C123.467 24.1716 123.444 24.0855 123.42 23.9967C122.978 22.3213 122.733 20.7684 122.746 19.0332C122.747 18.8616 122.747 18.69 122.747 18.5184C122.748 18.072 122.751 17.6257 122.754 17.1794C122.756 16.7218 122.757 16.2642 122.759 15.8066C122.761 14.9128 122.766 14.0189 122.771 13.125C124.045 13.2893 124.614 13.912 125.391 14.8991C125.797 15.4584 126.118 16.0557 126.443 16.6641C127.465 18.5528 127.465 18.5528 128.947 20.0793C129.448 20.5069 129.653 20.9506 129.88 21.5591C129.921 21.6618 129.962 21.7646 130.004 21.8705C130.137 22.2071 130.266 22.5449 130.396 22.8828C130.49 23.1215 130.583 23.36 130.678 23.5985C130.869 24.0844 131.06 24.5707 131.25 25.0574C131.595 25.9408 131.951 26.8194 132.309 27.6975C132.421 27.9736 132.533 28.2498 132.645 28.5261C133.106 29.6633 133.569 30.7998 134.032 31.936C134.088 32.0731 134.144 32.2102 134.201 32.3514C134.317 32.6347 134.432 32.918 134.548 33.2013C135.54 35.6352 136.529 38.0703 137.513 40.5078C137.568 40.6444 137.623 40.7809 137.68 40.9216C137.896 41.4563 138.111 41.9909 138.327 42.5256C138.784 43.658 139.242 44.7902 139.701 45.9219C139.737 46.0113 139.773 46.1008 139.81 46.193C140.299 47.3979 140.789 48.6022 141.28 49.8062C141.336 49.9436 141.392 50.081 141.45 50.2226C141.507 50.3623 141.564 50.5019 141.622 50.6458C143.605 55.5073 145.578 60.3726 147.521 65.25C146.934 63.5689 146.343 61.8889 145.747 60.2109C145.705 60.0924 145.663 59.9739 145.62 59.8518C144.855 57.6998 144.076 55.553 143.294 53.4072C142.418 51.003 141.549 48.596 140.685 46.1875C140.441 45.5083 140.197 44.8291 139.953 44.1499C139.924 44.0677 139.894 43.9855 139.864 43.9008C139.228 42.1298 138.588 40.3601 137.948 38.5908C137.461 37.2476 136.976 35.9041 136.492 34.5601C136.434 34.401 136.377 34.2419 136.32 34.0827C136.232 33.8409 136.145 33.599 136.058 33.3572C134.91 30.172 133.758 26.9885 132.598 23.8076C132.504 23.5492 132.411 23.2906 132.317 23.0318C132.075 22.3611 131.827 21.6934 131.57 21.0281C131.491 20.8184 131.491 20.8184 131.41 20.6046C131.309 20.339 131.206 20.0742 131.101 19.8103C130.517 18.2526 130.983 16.9632 131.646 15.5C132.039 14.696 132.463 13.9084 132.896 13.125C132.978 13.125 133.061 13.125 133.146 13.125C133.191 13.2486 133.235 13.3723 133.282 13.4997C133.447 13.9577 133.614 14.4157 133.78 14.8737C133.852 15.072 133.924 15.2704 133.996 15.4688C134.099 15.7536 134.202 16.0384 134.305 16.3232C134.338 16.4122 134.37 16.5011 134.403 16.5928C134.569 17.0537 134.569 17.0537 134.771 17.5C135.188 16.5542 135.161 15.6415 135.146 14.625C135.228 14.625 135.311 14.625 135.396 14.625C135.432 14.7371 135.432 14.7371 135.469 14.8515C137.505 21.1094 139.623 27.3239 141.896 33.5C141.941 33.6232 141.987 33.7465 142.033 33.8734C143.619 38.1787 145.244 42.4699 146.896 46.75C147.297 46.1479 147.097 45.5264 146.966 44.8392C146.903 44.5546 146.834 44.272 146.763 43.9892C146.737 43.8823 146.711 43.7754 146.684 43.6652C146.597 43.3116 146.51 42.9583 146.422 42.605C146.359 42.3516 146.297 42.0983 146.235 41.8449C146.067 41.1615 145.898 40.4783 145.728 39.7952C145.55 39.0732 145.372 38.3509 145.194 37.6287C144.866 36.2988 144.538 34.969 144.209 33.6394C143.895 32.3736 143.583 31.1077 143.271 29.8417C142.74 27.6927 142.209 25.544 141.677 23.3954C141.269 21.7499 140.862 20.1042 140.456 18.4586C140.152 17.2302 139.848 16.0018 139.544 14.7734C139.511 14.6403 139.478 14.5071 139.444 14.3699C138.749 11.5599 138.053 8.75009 137.351 5.94189C137.325 5.83909 137.299 5.73628 137.273 5.63036C137.035 4.679 136.797 3.72771 136.558 2.77657C136.494 2.52404 136.431 2.2715 136.368 2.01895C136.292 1.71689 136.216 1.41486 136.14 1.11287C136.091 0.917962 136.091 0.917962 136.041 0.719116C136.013 0.606472 135.985 0.493827 135.955 0.377769C135.896 0.125 135.896 0.125 135.896 0ZM131.646 39.5C131.729 40.244 131.993 40.9102 132.251 41.6074C132.3 41.7422 132.349 41.8769 132.4 42.0157C132.562 42.4586 132.725 42.9012 132.888 43.3438C133.086 43.8854 133.285 44.4271 133.483 44.9689C133.57 45.208 133.658 45.447 133.745 45.6861C134.402 47.4802 135.048 49.2785 135.692 51.0771C135.83 51.4598 135.967 51.8425 136.104 52.2251C136.145 52.3387 136.186 52.4523 136.227 52.5694C136.265 52.6725 136.302 52.7757 136.34 52.882C136.372 52.9717 136.404 53.0615 136.437 53.1539C136.52 53.3833 136.52 53.3833 136.646 53.625C136.976 53.625 137.306 53.625 137.646 53.625C136.837 51.1301 135.962 48.6597 135.084 46.1887C135.016 45.996 135.016 45.996 134.946 45.7993C134.877 45.6065 134.877 45.6065 134.807 45.4099C134.33 44.0664 133.858 42.7209 133.388 41.375C133.35 41.2657 133.312 41.1565 133.272 41.0439C133.063 40.446 132.854 39.848 132.646 39.25C132.285 39.25 131.984 39.3824 131.646 39.5ZM171.646 62C170.871 63.139 170.13 64.2953 169.408 65.4689C168.916 66.2678 168.417 67.0611 167.911 67.8516C167.211 68.9485 166.519 70.0505 165.83 71.1548C165.166 72.2184 164.498 73.2789 163.827 74.3382C163.516 74.8294 163.206 75.321 162.896 75.8125C162.771 76.0104 162.646 76.2083 162.521 76.4062C162.459 76.5042 162.397 76.6022 162.333 76.7031C160.271 79.9688 160.271 79.9688 160.083 80.2661C159.959 80.4623 159.835 80.6585 159.712 80.8547C159.382 81.3771 159.051 81.8984 158.718 82.4185C158.648 82.5275 158.579 82.6366 158.507 82.749C158.373 82.9594 158.238 83.1696 158.103 83.3794C158.043 83.4735 157.983 83.5676 157.921 83.6646C157.868 83.7476 157.815 83.8307 157.76 83.9163C157.626 84.1219 157.626 84.1219 157.646 84.375C157.976 84.4575 158.306 84.54 158.646 84.625C158.687 84.5579 158.729 84.4908 158.771 84.4217C159.701 82.9151 160.638 81.4133 161.585 79.9178C161.898 79.4247 162.209 78.9311 162.521 78.4375C162.646 78.2396 162.771 78.0417 162.896 77.8438C162.958 77.7458 163.02 77.6478 163.083 77.5469C163.646 76.6562 163.646 76.6562 163.833 76.3595C163.959 76.1611 164.084 75.9627 164.209 75.7643C164.517 75.2771 164.825 74.7901 165.133 74.3032C165.823 73.2122 166.509 72.1189 167.193 71.0234C167.868 69.9418 168.549 68.8643 169.235 67.7898C169.873 66.7895 170.502 65.7836 171.127 64.7756C171.532 64.1249 171.946 63.4848 172.388 62.8586C172.552 62.6155 172.552 62.6155 172.521 62.25C172.232 62.1675 171.943 62.085 171.646 62ZM147.646 65.5C147.771 65.75 147.771 65.75 147.771 65.75L147.646 65.5ZM147.771 65.875C147.896 66.125 147.896 66.125 147.896 66.125L147.771 65.875ZM147.896 66.125C148.021 66.375 148.021 66.375 148.021 66.375L147.896 66.125ZM148.021 66.5C148.146 66.75 148.146 66.75 148.146 66.75L148.021 66.5ZM145.396 74.75C145.685 75.7887 146.069 76.7704 146.482 77.7656C146.546 77.9225 146.611 78.0794 146.675 78.2363C146.832 78.6161 146.988 78.9957 147.146 79.375C147.476 79.2513 147.806 79.1275 148.146 79C147.654 77.5607 147.113 76.1508 146.521 74.75C146.15 74.75 145.778 74.75 145.396 74.75Z" fill="white"/>
<path d="M7.27079 2.62506C7.42913 2.62392 7.58747 2.62277 7.75062 2.62159C7.83968 2.62094 7.92875 2.62029 8.02052 2.61963C9.06119 2.64223 10.0323 3.22037 10.8958 3.75006C10.9836 3.80201 11.0714 3.85396 11.1618 3.90747C11.3958 4.12506 11.3958 4.12506 11.4545 4.43103C11.4279 5.40794 11.3006 6.33819 11.1145 7.29694C11.0889 7.43406 11.0633 7.57119 11.0369 7.71247C11.0103 7.85475 10.9837 7.99703 10.9563 8.14362C10.9294 8.28997 10.9024 8.43631 10.8747 8.58709C10.8057 8.95419 10.7279 9.3181 10.645 9.68229C10.2187 11.6462 10.2042 13.5876 10.2201 15.5867C10.2233 16.0558 10.2235 16.5249 10.2241 16.994C10.2256 17.8776 10.2297 18.7611 10.2348 19.6446C10.2404 20.6525 10.2431 21.6604 10.2456 22.6683C10.2508 24.7373 10.2596 26.8062 10.2708 28.8751C10.2989 28.715 10.327 28.5549 10.3559 28.39C10.6234 26.866 10.8918 25.3421 11.1609 23.8183C11.2992 23.0353 11.4372 22.2522 11.5745 21.4691C11.7076 20.7103 11.8414 19.9517 11.9757 19.1932C12.0263 18.9068 12.0766 18.6204 12.1266 18.3339C12.3991 16.7751 12.6954 15.2246 13.0375 13.6795C13.0682 13.5405 13.099 13.4016 13.1306 13.2584C13.3775 12.1641 13.6778 11.0989 14.0442 10.0391C14.0875 9.91146 14.0875 9.91146 14.1317 9.78122C16.2136 3.66322 16.2136 3.66322 17.7708 2.62506C17.696 3.59887 17.5308 4.54282 17.3406 5.50006C17.294 5.73946 17.2473 5.97886 17.2007 6.21828C17.1514 6.47158 17.1019 6.72485 17.0523 6.97811C16.1213 11.7433 15.1973 16.5338 14.7708 21.3751C14.8071 21.2623 14.8433 21.1496 14.8807 21.0334C16.2063 16.9273 17.7135 12.9196 19.5208 9.00006C19.562 9.00006 19.6033 9.00006 19.6458 9.00006C19.5723 9.94957 19.4509 10.8819 19.2932 11.8209C19.2469 12.1027 19.2006 12.3846 19.1543 12.6664C19.13 12.8135 19.1057 12.9605 19.0807 13.112C17.2633 24.1449 16.0196 35.2674 15.0598 52.1954C15.0541 52.3212 15.0541 52.3212 15.0482 52.4496C14.8601 56.5572 14.7455 60.6618 14.7408 64.7737C14.7401 65.2966 14.737 65.8194 14.7335 66.3423C14.7312 66.753 14.7305 67.1637 14.7303 67.5745C14.73 67.7675 14.729 67.9606 14.7273 68.1536C14.6772 69.8533 14.6772 69.8533 15.4324 71.3165C17.6736 72.5325 22.2757 70.6657 24.5208 70.0001C30.5638 68.1676 36.5756 65.9898 42.2708 63.2501C42.3638 63.2056 42.4568 63.161 42.5526 63.1152C44.3915 62.2302 46.1957 61.2559 47.8958 60.1251C47.9188 60.2574 47.9419 60.3896 47.9656 60.5259C48.2335 61.9603 48.6438 63.3188 49.124 64.6963C50.1918 67.7708 50.1918 67.7708 49.5911 69.1641C48.9167 70.2803 47.7999 70.8595 46.6458 71.3751C47.0686 72.0485 47.4966 72.7164 47.9471 73.3717C48.5621 74.2716 49.1157 75.2006 49.6536 76.1485C49.7252 76.2741 49.7967 76.3996 49.8705 76.529C49.937 76.6475 50.0035 76.7661 50.0721 76.8882C50.1315 76.9941 50.191 77.1 50.2523 77.2091C50.3843 77.4768 50.4541 77.7112 50.5208 78.0001C49.5963 78.4308 48.6636 78.8259 47.7132 79.1954C47.5778 79.2484 47.4424 79.3014 47.303 79.356C47.0119 79.4699 46.7207 79.5837 46.4295 79.6973C45.7246 79.9723 45.0202 80.2483 44.3157 80.5243C44.0724 80.6196 43.8291 80.7149 43.5858 80.8102C42.1111 81.3877 40.6387 81.971 39.1667 82.5554C36.1588 83.7497 33.1473 84.9344 30.1318 86.1093C29.7656 86.2521 29.3994 86.395 29.0332 86.5379C12.3903 93.0313 12.3903 93.0313 11.0208 92.7501C10.6198 92.4918 10.284 92.2077 9.93485 91.8834C9.50713 91.5012 9.12572 91.456 8.56034 91.4654C7.79663 91.5568 7.12177 91.8477 6.59891 92.4141C6.49063 92.525 6.38235 92.6358 6.27079 92.7501C6.02659 92.7426 6.02659 92.7426 5.77079 92.6251C5.07303 91.8542 4.60024 90.8728 4.13016 89.9532C4.06527 89.8274 4.00037 89.7016 3.93351 89.572C2.77079 87.2973 2.77079 87.2973 2.77079 86.6251C2.63415 86.6844 2.49751 86.7437 2.35672 86.8047C1.62751 87.0795 0.771158 87.2502 0.0207875 87.0001C0.014877 85.4413 0.0104954 83.8825 0.00783472 82.3238C0.00655483 81.5992 0.00483311 80.8746 0.00192766 80.1501C-0.0135569 76.1763 0.0631805 72.2186 0.270788 68.2501C0.280061 68.0696 0.289333 67.8892 0.298604 67.7087C0.351817 66.6933 0.413597 65.6786 0.481725 64.6641C0.491903 64.5107 0.502081 64.3573 0.512567 64.1993C0.894232 58.5058 1.42721 52.8213 2.0608 47.1506C2.0943 46.8507 2.12767 46.5508 2.16103 46.2509C3.02068 38.5329 3.94608 30.8221 4.85604 23.1099C5.04084 21.5436 5.22546 19.9774 5.40998 18.411C5.4297 18.2437 5.4297 18.2437 5.44981 18.0729C5.51582 17.5126 5.58181 16.9523 5.64781 16.3921C6.18838 11.803 6.72941 7.21402 7.27079 2.62506ZM6.39579 36.8751C6.2482 37.1702 6.25005 37.3588 6.24174 37.6883C6.23844 37.8076 6.23515 37.9269 6.23175 38.0498C6.22719 38.2478 6.22719 38.2478 6.22254 38.4497C6.21886 38.5892 6.21518 38.7288 6.21139 38.8725C6.19912 39.3432 6.1877 39.814 6.17627 40.2847C6.16769 40.621 6.15905 40.9573 6.15036 41.2936C6.12924 42.1146 6.10876 42.9357 6.0885 43.7567C6.06484 44.7142 6.04056 45.6716 6.01625 46.629C5.97286 48.3394 5.93003 50.0499 5.88752 51.7603C5.84635 53.4166 5.80479 55.0728 5.76276 56.7291C5.76018 56.8308 5.7576 56.9325 5.75494 57.0373C5.75236 57.1388 5.74979 57.2404 5.74713 57.345C5.69923 59.2329 5.65171 61.1209 5.60436 63.0088C5.58766 63.6744 5.57086 64.34 5.55401 65.0056C5.53342 65.8195 5.51306 66.6335 5.49295 67.4474C5.48271 67.8619 5.47235 68.2763 5.46181 68.6908C5.4179 70.4192 5.38299 72.146 5.39579 73.8751C5.84954 73.8751 6.30329 73.8751 6.77079 73.8751C6.87236 71.9703 6.93001 70.067 6.96735 68.1599C6.9735 67.8596 6.97967 67.5593 6.98588 67.2589C7.00248 66.451 7.01862 65.6431 7.03467 64.8352C7.04475 64.3284 7.05498 63.8216 7.06526 63.3148C7.06698 63.2301 7.0687 63.1454 7.07047 63.0581C7.07396 62.8859 7.07745 62.7137 7.08095 62.5415C7.11354 60.934 7.14569 59.3265 7.1777 57.719C7.20501 56.3477 7.23268 54.9764 7.26063 53.6051C7.29326 52.0037 7.32567 50.4023 7.35773 48.8009C7.36116 48.6292 7.3646 48.4574 7.36804 48.2857C7.37058 48.159 7.37058 48.159 7.37316 48.0298C7.38494 47.4425 7.39687 46.8551 7.40886 46.2677C7.42508 45.4726 7.44095 44.6774 7.45657 43.8822C7.4623 43.5934 7.46814 43.3045 7.47411 43.0157C7.51631 40.9686 7.52773 38.9226 7.52079 36.8751C7.14954 36.8751 6.77829 36.8751 6.39579 36.8751ZM8.77079 67.1251C8.77079 68.8163 8.77079 70.5076 8.77079 72.2501C9.18329 72.2501 9.59579 72.2501 10.0208 72.2501C10.0208 70.5588 10.0208 68.8676 10.0208 67.1251C9.60829 67.1251 9.19579 67.1251 8.77079 67.1251ZM41.7478 71.8399C41.629 71.8941 41.629 71.8941 41.5077 71.9494C41.2437 72.07 40.9799 72.1913 40.7161 72.3126C40.5297 72.3978 40.3434 72.483 40.157 72.5682C39.7661 72.7469 39.3753 72.9259 38.9846 73.1051C38.4242 73.3621 37.8634 73.6185 37.3025 73.8746C36.2084 74.3743 35.1146 74.8746 34.0208 75.3751C33.2864 75.7111 32.5521 76.047 31.8177 76.3829C31.727 76.4243 31.6364 76.4658 31.5431 76.5085C30.139 77.1505 28.7339 77.7901 27.3282 78.4284C25.9903 79.0359 24.6537 79.6463 23.3177 80.2579C21.3052 81.179 19.2889 82.0914 17.2708 83.0001C17.2708 83.3301 17.2708 83.6601 17.2708 84.0001C18.361 83.5964 19.4163 83.1469 20.4661 82.6485C20.7757 82.5032 21.0854 82.3581 21.3953 82.2134C21.5164 82.1569 21.5164 82.1569 21.6399 82.0993C22.6 81.6529 23.5681 81.225 24.5364 80.7969C26.1909 80.065 27.8417 79.325 29.4895 78.5782C29.9339 78.3768 30.3782 78.1755 30.8225 77.9742C30.9326 77.9243 31.0426 77.8745 31.156 77.8231C32.8345 77.0628 34.5154 76.3078 36.196 75.5522C36.9774 75.2009 37.7587 74.8491 38.5398 74.4971C38.8834 74.3424 39.227 74.1876 39.5706 74.0329C39.7902 73.934 40.0097 73.835 40.2293 73.7361C40.5336 73.5989 40.838 73.4618 41.1424 73.3248C41.2313 73.2846 41.3203 73.2445 41.412 73.2032C41.9458 72.9629 42.482 72.7292 43.0208 72.5001C42.9499 71.9838 42.9499 71.9838 42.7708 71.5001C42.3846 71.5001 42.0976 71.6796 41.7478 71.8399ZM23.2672 72.5796C23.1604 72.6243 23.0536 72.6689 22.9435 72.7149C22.8274 72.7637 22.7113 72.8126 22.5916 72.8629C22.4731 72.9125 22.3545 72.9621 22.2324 73.0133C21.9811 73.1186 21.7299 73.224 21.4786 73.3295C21.0933 73.4913 20.7078 73.6528 20.3223 73.8143C20.0787 73.9164 19.8352 74.0185 19.5916 74.1207C19.4178 74.1935 19.4178 74.1935 19.2404 74.2679C19.0796 74.3354 19.0796 74.3354 18.9156 74.4043C18.821 74.444 18.7265 74.4837 18.6291 74.5246C18.4658 74.5949 18.3048 74.6706 18.1458 74.7501C18.1458 75.1213 18.1458 75.4926 18.1458 75.8751C18.9236 75.6233 19.682 75.3449 20.4383 75.0347C20.5973 74.9698 20.5973 74.9698 20.7595 74.9036C20.9814 74.8129 21.2031 74.7221 21.4247 74.631C21.7648 74.4915 22.1053 74.3531 22.4458 74.2147C22.6621 74.1261 22.8783 74.0375 23.0945 73.9488C23.1963 73.9075 23.2981 73.8662 23.403 73.8237C23.497 73.7849 23.591 73.7461 23.6877 73.7061C23.7704 73.6722 23.8531 73.6384 23.9382 73.6035C24.1712 73.5011 24.1712 73.5011 24.3958 73.2501C24.1483 72.8169 24.1483 72.8169 23.8958 72.3751C23.6714 72.3751 23.4716 72.4939 23.2672 72.5796ZM38.178 77.5934C37.401 78.0098 36.6006 78.3756 35.8006 78.7449C35.3576 78.95 34.9163 79.1585 34.4749 79.3668C34.2962 79.4509 34.1175 79.535 33.9389 79.6191C33.0075 80.0579 32.0767 80.4978 31.1458 80.9376C29.6828 81.6288 28.2193 82.3191 26.7552 83.0079C26.6679 83.0489 26.5806 83.09 26.4906 83.1323C25.788 83.4629 25.0854 83.7933 24.3828 84.1238C23.8552 84.3719 23.3276 84.62 22.8001 84.8682C22.6251 84.9505 22.4501 85.0328 22.2751 85.1152C21.2388 85.6026 20.203 86.091 19.1678 86.5806C19.0657 86.6289 18.9636 86.6772 18.8585 86.7269C18.3651 86.9602 17.8717 87.1936 17.3785 87.4273C16.5136 87.8366 15.6479 88.2423 14.7708 88.6251C15.2888 88.7977 15.6458 88.614 16.1409 88.441C16.2918 88.3896 16.2918 88.3897 16.4457 88.3373C16.7785 88.2236 17.1106 88.108 17.4427 87.9922C17.5574 87.9526 17.6721 87.913 17.7902 87.8722C23.4644 85.9114 29.027 83.6516 34.5212 81.2349C34.7565 81.1313 34.992 81.028 35.2275 80.9247C38.8482 79.3343 42.4368 77.6711 46.0208 76.0001C46.0208 75.9588 46.0208 75.9176 46.0208 75.8751C42.9268 75.5595 40.8823 76.1328 38.178 77.5934ZM5.39579 77.6251C5.39579 78.8213 5.39579 80.0176 5.39579 81.2501C5.84954 81.2501 6.30329 81.2501 6.77079 81.2501C6.77079 80.0538 6.77079 78.8576 6.77079 77.6251C6.31704 77.6251 5.86329 77.6251 5.39579 77.6251Z" fill="white"/>
<path d="M99.2708 96.625C99.642 96.625 100.013 96.625 100.396 96.625C100.767 97.6975 101.138 98.77 101.521 99.875C101.892 98.8025 102.263 97.73 102.646 96.625C103.017 96.625 103.388 96.625 103.771 96.625C104.016 97.8974 104.26 99.17 104.49 100.445C104.505 100.532 104.521 100.619 104.538 100.708C104.609 101.108 104.646 101.467 104.646 101.875C104.275 101.875 103.903 101.875 103.521 101.875C103.356 100.967 103.191 100.06 103.021 99.125C102.738 99.9831 102.738 99.9831 102.456 100.842C102.421 100.948 102.386 101.054 102.349 101.164C102.295 101.328 102.295 101.328 102.24 101.495C102.146 101.75 102.146 101.75 102.021 101.875C101.687 101.893 101.355 101.88 101.021 101.875C100.995 101.8 100.969 101.725 100.942 101.647C100.826 101.309 100.708 100.971 100.591 100.633C100.55 100.515 100.51 100.396 100.468 100.275C100.429 100.162 100.39 100.05 100.349 99.9341C100.313 99.83 100.277 99.7259 100.24 99.6187C100.166 99.3783 100.166 99.3783 100.021 99.25C99.8558 100.116 99.6908 100.983 99.5208 101.875C99.1495 101.875 98.7783 101.875 98.3958 101.875C98.4999 101.188 98.6044 100.5 98.7093 99.8128C98.745 99.5789 98.7805 99.345 98.8159 99.1111C98.8668 98.775 98.9181 98.439 98.9695 98.103C98.9852 97.9983 99.001 97.8936 99.0172 97.7858C99.0787 97.3858 99.1425 97.0097 99.2708 96.625Z" fill="white"/>
<path d="M92.6458 96.625C93.017 96.625 93.3883 96.625 93.7708 96.625C94.142 97.6975 94.5133 98.77 94.8958 99.875C95.267 98.8025 95.6383 97.73 96.0208 96.625C96.392 96.625 96.7633 96.625 97.1458 96.625C97.3908 97.8974 97.6352 99.17 97.8645 100.445C97.8804 100.532 97.8963 100.619 97.9128 100.708C97.9837 101.108 98.0208 101.467 98.0208 101.875C97.6495 101.875 97.2783 101.875 96.8958 101.875C96.7308 100.967 96.5658 100.06 96.3958 99.125C96.113 99.9831 96.113 99.9831 95.8311 100.842C95.7959 100.948 95.7606 101.054 95.7244 101.164C95.6704 101.328 95.6704 101.328 95.6153 101.495C95.5208 101.75 95.5208 101.75 95.3958 101.875C95.0619 101.893 94.7302 101.88 94.3958 101.875C94.3699 101.8 94.344 101.725 94.3174 101.647C94.2007 101.309 94.0834 100.971 93.9661 100.633C93.9254 100.515 93.8847 100.396 93.8428 100.275C93.8037 100.162 93.7646 100.05 93.7244 99.9341C93.6884 99.83 93.6524 99.7259 93.6153 99.6187C93.5409 99.3783 93.5409 99.3783 93.3958 99.25C93.2308 100.116 93.0658 100.983 92.8958 101.875C92.5245 101.875 92.1533 101.875 91.7708 101.875C91.8749 101.188 91.9794 100.5 92.0843 99.8128C92.12 99.5789 92.1555 99.345 92.1909 99.1111C92.2418 98.775 92.2931 98.439 92.3445 98.103C92.3602 97.9983 92.376 97.8936 92.3922 97.7858C92.4537 97.3858 92.5175 97.0097 92.6458 96.625Z" fill="white"/>
<path d="M105.021 96.625C105.463 96.5368 105.832 96.506 106.271 96.625C106.648 97.0406 106.9 97.4978 107.146 98C107.468 97.695 107.701 97.4198 107.911 97.0312C108.066 96.8022 108.066 96.8022 108.271 96.625C108.697 96.5497 109.093 96.5726 109.521 96.625C108.683 98.0954 108.683 98.0954 108.263 98.6094C107.975 98.974 107.975 98.974 108.091 99.3389C108.312 99.843 108.596 100.269 108.911 100.719C109.521 101.593 109.521 101.593 109.521 101.875C109.074 101.974 108.714 102.003 108.271 101.875C107.854 101.42 107.56 100.918 107.271 100.375C106.977 100.73 106.728 101.074 106.505 101.477C106.35 101.702 106.35 101.702 106.146 101.875C105.72 101.95 105.324 101.927 104.896 101.875C105.326 100.921 105.915 100.099 106.521 99.25C106.437 99.1185 106.437 99.1185 106.351 98.9844C106.195 98.7386 106.038 98.4926 105.882 98.2466C105.738 98.0205 105.594 97.7948 105.448 97.5698C105.392 97.4823 105.336 97.3948 105.279 97.3047C105.228 97.2272 105.178 97.1497 105.127 97.0698C105.021 96.875 105.021 96.875 105.021 96.625Z" fill="white"/>
<path d="M109.896 96.625C110.267 96.625 110.638 96.625 111.021 96.625C111.481 97.695 111.888 98.7752 112.271 99.875C112.731 98.805 113.138 97.7248 113.521 96.625C113.892 96.625 114.263 96.625 114.646 96.625C114.564 97.2658 114.375 97.8305 114.153 98.4326C114.117 98.5314 114.081 98.6303 114.044 98.7321C113.93 99.0456 113.815 99.3587 113.7 99.6719C113.623 99.8852 113.545 100.099 113.467 100.312C113.277 100.833 113.087 101.354 112.896 101.875C112.525 101.875 112.153 101.875 111.771 101.875C111.273 100.738 110.867 99.5843 110.482 98.4062C110.424 98.2324 110.367 98.0586 110.31 97.8848C110.171 97.465 110.033 97.0451 109.896 96.625Z" fill="white"/>
<path d="M80.7878 97.9561C81.2694 98.2006 81.5498 98.5268 81.8171 98.9786C81.8957 99.2501 81.8957 99.2501 81.8957 100.25C80.9057 100.25 79.9157 100.25 78.8957 100.25C79.1917 100.907 79.1917 100.907 79.7004 100.992C80.1464 101 80.2717 100.95 80.6457 100.75C81.0216 100.778 81.2103 100.823 81.4972 101.07C81.5462 101.13 81.5952 101.189 81.6457 101.25C80.8918 101.889 80.5378 102.047 79.527 102.034C78.9551 101.983 78.7146 101.87 78.2707 101.5C77.8364 100.926 77.6938 100.352 77.7306 99.6378C77.84 98.9203 78.2386 98.4657 78.7707 98.0001C79.4113 97.7865 80.1369 97.7586 80.7878 97.9561ZM79.0207 99.1251C78.9794 99.2488 78.9382 99.3726 78.8957 99.5001C79.5144 99.5001 80.1332 99.5001 80.7707 99.5001C80.5646 98.9846 80.5646 98.9846 80.1457 98.7501C79.6089 98.7501 79.443 98.8169 79.0207 99.1251Z" fill="white"/>
<path d="M84.2708 97.875C84.566 98.0121 84.7664 98.1663 85.0208 98.375C84.9001 98.6766 84.8053 98.8488 84.5442 99.0469C84.1726 99.153 83.9835 99.0439 83.6458 98.875C83.7919 99.3135 83.868 99.3384 84.2551 99.5547C84.9513 99.9739 84.9513 99.9739 85.1458 100.375C85.202 100.815 85.1735 101.064 84.9895 101.469C84.6974 101.844 84.4458 101.975 83.9749 102.042C83.2361 102.053 82.8399 101.979 82.2708 101.5C82.3934 101.193 82.4861 101.025 82.7551 100.828C83.1047 100.725 83.2076 100.834 83.5208 101C83.7954 100.963 83.7954 100.963 84.0208 100.875C83.7424 100.575 83.4822 100.35 83.1379 100.125C82.7909 99.8887 82.5905 99.7429 82.3958 99.375C82.3226 98.8841 82.3525 98.6899 82.6301 98.2734C83.1115 97.7779 83.6083 97.7896 84.2708 97.875Z" fill="white"/>
<path d="M85.8958 96.5C86.267 96.5 86.6383 96.5 87.0208 96.5C87.0208 96.995 87.0208 97.49 87.0208 98C87.227 98 87.4333 98 87.6458 98C87.6458 98.2887 87.6458 98.5775 87.6458 98.875C87.4395 98.875 87.2333 98.875 87.0208 98.875C87.0208 99.865 87.0208 100.855 87.0208 101.875C86.6495 101.875 86.2783 101.875 85.8958 101.875C85.8958 100.885 85.8958 99.895 85.8958 98.875C85.7308 98.875 85.5658 98.875 85.3958 98.875C85.3958 98.5863 85.3958 98.2975 85.3958 98C85.5608 98 85.7258 98 85.8958 98C85.8958 97.505 85.8958 97.01 85.8958 96.5Z" fill="white"/>
<path d="M88.5129 100.852C88.8957 100.875 88.8957 100.875 89.1457 101.125C89.177 101.438 89.177 101.438 89.1457 101.75C88.8957 102 88.8957 102 88.5207 102.039C88.397 102.026 88.2732 102.013 88.1457 102C87.8957 101.625 87.8957 101.625 87.9348 101.297C88.0582 100.87 88.0559 100.881 88.5129 100.852Z" fill="white"/>
</svg>
