<svg width="29" height="29" viewBox="0 0 29 29" fill="none" xmlns="http://www.w3.org/2000/svg">
<path opacity="0.4" d="M9.88427 6.52173C10.2793 5.98535 11.0343 5.87078 11.5707 6.26582C11.9873 6.57266 12.3833 6.87956 12.7283 7.14874C13.4168 7.6861 14.339 8.42586 15.2646 9.2296C16.1843 10.0281 17.1351 10.9135 17.8654 11.7401C18.2294 12.1519 18.5641 12.5777 18.8143 12.9929C19.0446 13.3748 19.2985 13.8998 19.2985 14.474C19.2985 15.0483 19.0446 15.5733 18.8143 15.9553C18.5641 16.3705 18.2294 16.7961 17.8654 17.208C17.1351 18.0346 16.1843 18.9199 15.2646 19.7185C14.339 20.5222 13.4168 21.2619 12.7283 21.7994C12.3833 22.0685 11.9873 22.3755 11.5707 22.6823C11.0343 23.0773 10.2793 22.9628 9.88427 22.4264C9.72542 22.2107 9.64895 21.9598 9.64919 21.7111V14.474V7.23701C9.64895 6.9883 9.72542 6.73735 9.88427 6.52173Z" fill="#141B34"/>
<path d="M9.88427 6.52173C10.2793 5.98535 11.0343 5.87078 11.5707 6.26582C11.9873 6.57266 12.3833 6.87956 12.7283 7.14874C13.4168 7.6861 14.339 8.42586 15.2646 9.2296C16.1843 10.0281 17.1351 10.9135 17.8654 11.7401C18.2294 12.1519 18.5641 12.5777 18.8143 12.9929C19.0446 13.3748 19.2985 13.8998 19.2985 14.474C19.2985 15.0483 19.0446 15.5733 18.8143 15.9553C18.5641 16.3705 18.2294 16.7961 17.8654 17.208C17.3007 17.8472 16.6042 18.5214 15.8922 19.1636L9.64919 12.9206V7.23701C9.64895 6.9883 9.72542 6.73735 9.88427 6.52173Z" fill="#141B34"/>
</svg>
