<svg width="1440" height="1002" viewBox="0 0 1440 1002" fill="none" xmlns="http://www.w3.org/2000/svg">
<path d="M491.717 12.6652C539.875 29.7856 584.573 56.3656 628.006 82.952C633.259 86.1636 638.538 89.3269 643.829 92.4742C653.678 98.3337 663.366 104.385 672.953 110.662C676.811 113.184 680.693 115.664 684.593 118.121C701.516 128.805 718.156 139.88 734.748 151.069C735.83 151.798 736.913 152.527 738.028 153.279C881.505 249.994 881.505 249.994 922.568 304.241C923.649 305.632 923.649 305.632 924.753 307.05C939.63 327.087 944.233 345.871 941.368 370.57C938.377 390.711 932.596 410.029 926.176 429.305C925.819 430.399 925.462 431.494 925.095 432.621C918.536 452.7 910.935 472.505 898.922 489.995C897.099 492.844 897.099 492.844 897.385 495.608C902.316 505.368 916.734 510.266 926.176 514.685C924.719 521.953 922.825 528.858 920.238 535.804C919.7 537.253 919.7 537.253 919.15 538.73C900.936 586.541 872.579 629.116 841.998 669.811C841.452 670.539 840.905 671.267 840.341 672.017C825.445 691.775 809.69 711.039 793.014 729.323C790.751 731.831 788.527 734.364 786.311 736.914C782 741.85 777.568 746.659 773.078 751.433C772.293 752.269 771.508 753.104 770.699 753.965C762.332 762.837 753.92 771.598 744.64 779.528C741.915 781.883 739.276 784.319 736.627 786.758C707.9 812.625 670.268 840.223 630.353 842.976C629.468 843.038 628.582 843.1 627.67 843.164C621.261 843.422 616.942 842.284 611.112 839.369C604.465 836.13 598.26 836.103 591.303 838.255C567.894 848.775 546.054 862.408 524.069 875.58C461.002 913.32 461.002 913.32 431.935 913.926C432.205 901.015 435.459 892.094 444.561 882.81C448.207 879.331 452.022 876.151 455.985 873.039C453.278 873.735 450.572 874.436 447.868 875.144C447.05 875.357 446.232 875.569 445.39 875.788C440.24 877.155 435.281 878.776 430.281 880.63C424.058 882.724 419.001 883.671 412.694 881.457C409.129 879.439 406.162 876.921 403.074 874.242C400.774 872.333 398.468 870.429 396.159 868.53C395.074 867.619 393.989 866.707 392.871 865.768C388.544 862.408 386.441 860.938 380.902 861.24C375.008 862.148 369.232 863.63 363.451 865.077C360.095 865.761 357.18 865.97 353.77 865.824C356.38 851.99 363.733 841.996 373.156 831.942C375.744 828.697 375.744 828.697 375.547 824.741C373.824 820.337 372.215 819.611 367.975 817.648C355.037 811.137 345.703 800.97 339.866 787.509C338.226 781.984 337.833 776.747 337.863 771.02C337.867 770.084 337.871 769.148 337.874 768.184C338.049 755.187 339.48 742.284 340.786 729.362C341.072 726.462 341.356 723.561 341.639 720.661C342.326 713.654 343.023 706.649 343.723 699.643C344.54 691.461 345.344 683.277 346.146 675.093C347.579 660.479 349.02 645.866 350.468 631.254C350.554 630.382 350.64 629.511 350.729 628.613C351.167 624.199 351.604 619.784 352.041 615.37C352.917 606.529 353.793 597.689 354.667 588.848C354.753 587.977 354.84 587.105 354.928 586.208C356.37 571.639 357.804 557.07 359.233 542.5C360.034 534.341 360.839 526.184 361.653 518.027C362.418 510.359 363.176 502.69 363.927 495.021C364.203 492.219 364.482 489.417 364.765 486.615C366.843 465.971 368.046 446.803 364.231 426.251C363.942 424.621 363.656 422.989 363.371 421.358C362.769 417.918 362.163 414.48 361.551 411.042C357.135 386.113 352.893 361.282 351.666 335.958C351.616 334.937 351.566 333.916 351.515 332.864C351.44 331.318 351.44 331.318 351.363 329.74C350.396 310.209 348.435 290.831 346.308 271.399C346.035 268.903 345.766 266.408 345.497 263.912C344.475 254.457 343.405 245.009 342.289 235.565C341.923 232.418 341.568 229.27 341.223 226.12C339.068 206.445 335.909 188.685 328.517 170.309C327.022 166.473 325.548 162.629 324.082 158.782C323.556 157.407 323.556 157.407 323.018 156.004C318.416 143.766 314.938 130.904 313.786 117.849C313.698 116.891 313.61 115.933 313.52 114.947C309.765 67.5109 309.765 67.5109 317.694 46.8992C318.01 46.0759 318.326 45.2526 318.651 44.4043C322.226 35.2653 326 26.9788 332.124 19.241C332.918 19.241 333.712 19.241 334.529 19.241C338.265 27.2981 341.563 35.3926 344.38 43.8177C344.839 45.189 345.298 46.5603 345.771 47.9732C346.68 50.7202 347.573 53.4725 348.45 56.23C352.392 68.1397 357.163 76.4185 368.304 82.5947C383.732 89.5645 398.488 90.4004 415.099 90.1904C412.272 82.4111 402.874 79.2066 395.859 75.76C386.728 71.5492 377.474 67.6178 368.2 63.7347C371.653 62.7255 373.573 62.5815 377.295 62.9079C387.27 63.0194 396.303 55.5948 403.295 49.0976C408.147 44.2134 412.507 38.9553 416.898 33.6573C440.501 5.29868 456.22 0.525382 491.717 12.6652ZM430.732 39.684C432.526 45.6634 435.067 51.01 437.947 56.5195C441.122 56.5195 444.297 56.5195 447.568 56.5195C445.187 50.1701 442.806 43.8207 440.352 37.279C436.5 37.279 434.227 38.1729 430.732 39.684ZM382.631 132.279C382.631 141.406 382.631 150.534 382.631 159.937C386.599 159.937 390.568 159.937 394.656 159.937C394.656 150.81 394.656 141.683 394.656 132.279C390.688 132.279 386.719 132.279 382.631 132.279ZM506.492 175.57C505.301 179.142 504.111 182.713 502.884 186.393C522.415 196.51 541.962 206.587 561.658 216.381C571.894 221.472 582.078 226.635 592.162 232.021C603.346 237.95 614.71 243.527 626.041 249.168C636.349 254.302 646.648 259.436 656.808 264.858C665.614 269.555 674.498 274.089 683.415 278.569C684.958 279.345 686.501 280.122 688.043 280.901C690.194 281.988 692.35 283.067 694.505 284.146C695.758 284.775 697.01 285.403 698.301 286.051C701.119 287.571 701.119 287.571 703.707 287.406C703.707 284.628 703.707 281.85 703.707 278.988C687.425 270.012 671.042 261.24 654.602 252.557C642.892 246.372 631.197 240.16 619.53 233.893C607.128 227.233 594.697 220.63 582.251 214.051C570.048 207.6 557.855 201.131 545.69 194.608C543.582 193.478 541.473 192.349 539.364 191.219C533.623 188.143 527.887 185.06 522.172 181.935C521.318 181.471 520.464 181.007 519.584 180.529C517.458 179.372 515.335 178.207 513.214 177.041C510.13 175.314 510.13 175.314 506.492 175.57ZM468.011 193.608C468.78 211.923 470.743 230.119 472.64 248.345C473.071 252.489 473.496 256.634 473.922 260.779C474.753 268.853 475.589 276.927 476.428 285.001C480.397 285.001 484.365 285.001 488.454 285.001C487.693 274.683 486.93 264.364 486.164 254.047C485.809 249.255 485.454 244.463 485.101 239.671C484.759 235.039 484.416 230.408 484.071 225.776C483.941 224.016 483.811 222.256 483.682 220.497C483.022 211.514 482.317 202.552 481.239 193.608C476.873 193.608 472.508 193.608 468.011 193.608ZM679.657 197.216C684.31 202.784 689.136 208.065 694.291 213.17C694.994 213.872 695.697 214.573 696.421 215.295C697.934 216.803 699.447 218.309 700.962 219.815C703.367 222.204 705.769 224.598 708.169 226.992C714.13 232.937 720.097 238.875 726.064 244.814C731.116 249.841 736.164 254.871 741.21 259.904C743.562 262.249 745.918 264.59 748.274 266.93C755.324 273.951 762.239 280.983 768.644 288.608C770.443 290.617 772.246 292.622 774.055 294.621C777.22 298.126 780.36 301.647 783.45 305.218C788.96 311.541 794.691 317.661 800.393 323.809C802.306 325.878 804.212 327.953 806.115 330.03C809.641 333.877 813.188 337.703 816.745 341.52C817.568 342.41 818.392 343.299 819.24 344.216C833.017 358.6 853.55 374.061 873.264 378.798C874.455 378.402 875.645 378.005 876.872 377.596C878.677 372.807 879.726 367.801 880.873 362.818C881.446 360.353 882.064 357.901 882.685 355.448C886.185 340.97 884.858 330.539 877.858 317.436C874.1 311.299 869.676 305.954 864.847 300.634C863.884 299.572 862.921 298.51 861.93 297.416C831.007 264.992 787.693 243.473 748.201 223.672C747.22 223.179 746.24 222.686 745.229 222.178C713.626 205.184 713.626 205.184 679.657 197.216ZM435.542 205.634C434.966 241.493 435.822 277.276 437.045 313.11C437.103 314.811 437.103 314.811 437.163 316.547C437.756 333.918 438.377 351.287 439.002 368.657C439.26 375.851 439.517 383.045 439.773 390.239C439.826 391.718 439.879 393.197 439.933 394.72C440.204 402.297 440.473 409.873 440.742 417.45C440.795 418.955 440.849 420.461 440.904 422.012C441.011 425.046 441.119 428.081 441.226 431.115C441.537 439.881 441.853 448.647 442.174 457.413C443.19 485.311 444.112 513.206 444.693 541.117C444.717 542.272 444.741 543.427 444.767 544.617C445.477 578.973 445.656 613.325 444.223 647.663C443.898 655.849 443.905 664.026 443.96 672.216C444.357 672.216 444.754 672.216 445.163 672.216C459.32 575.665 459.32 575.665 469.213 478.609C469.298 477.515 469.383 476.422 469.47 475.295C469.926 469.186 470.233 463.086 470.416 456.963C470.448 456.062 470.481 455.161 470.515 454.233C473.191 371.723 453.132 286.074 436.745 205.634C436.348 205.634 435.951 205.634 435.542 205.634ZM512.504 217.659C512.504 389.886 512.504 562.113 512.504 739.558C520.175 737.257 526.686 735.263 533.624 731.667C534.44 731.249 535.256 730.831 536.096 730.401C578.141 708.587 615.804 678.6 652.311 648.675C654.186 647.141 656.068 645.614 657.95 644.088C664.806 638.524 671.53 632.822 678.216 627.056C682.525 623.348 686.883 619.719 691.306 616.148C697.009 611.519 702.444 606.646 707.85 601.676C711.222 598.588 714.654 595.58 718.105 592.581C721.885 589.267 725.609 585.89 729.336 582.515C731.952 580.173 734.585 577.859 737.232 575.553C751.064 563.463 764.137 550.579 777.137 537.608C777.787 536.961 778.437 536.314 779.106 535.648C786.305 528.477 793.335 521.238 799.91 513.482C800.991 512.253 802.075 511.025 803.16 509.799C818.421 492.198 837.81 469.356 837.517 445.013C836.058 428.671 817.793 412.483 805.998 402.553C803.316 400.272 800.758 397.882 798.181 395.483C790.363 388.423 781.92 382.187 773.512 375.854C771.32 374.193 769.144 372.516 766.976 370.822C696.056 315.474 615.964 265.16 534.751 226.528C534.012 226.174 533.273 225.82 532.511 225.455C525.944 222.398 519.393 220.164 512.504 217.659ZM365.795 227.279C365.795 243.549 365.795 259.82 365.795 276.583C370.161 276.583 374.526 276.583 379.023 276.583C379.023 260.313 379.023 244.043 379.023 227.279C374.658 227.279 370.293 227.279 365.795 227.279ZM397.061 366.773C396.923 382.158 397.358 397.515 397.815 412.891C397.896 415.688 397.977 418.485 398.058 421.282C398.276 428.824 398.498 436.366 398.721 443.907C398.861 448.62 398.999 453.332 399.137 458.044C399.594 473.636 400.054 489.228 400.516 504.82C400.541 505.658 400.566 506.495 400.592 507.357C400.616 508.195 400.641 509.034 400.667 509.897C401.071 523.535 401.47 537.172 401.866 550.81C402.273 564.833 402.685 578.856 403.101 592.878C403.334 600.744 403.566 608.609 403.793 616.475C404.006 623.852 404.224 631.229 404.447 638.606C404.528 641.321 404.607 644.035 404.684 646.749C404.789 650.437 404.901 654.124 405.015 657.812C405.044 658.9 405.073 659.988 405.103 661.11C404.801 665.844 404.801 665.844 406.681 669.811C408.508 669.898 410.339 669.912 412.168 669.887C413.162 669.876 414.155 669.865 415.179 669.854C415.946 669.84 416.714 669.826 417.504 669.811C417.789 642.447 416.99 615.098 416.33 587.744C416.163 580.811 415.999 573.878 415.835 566.946C415.56 555.32 415.282 543.695 415.001 532.069C414.679 518.683 414.361 505.297 414.047 491.911C413.774 480.348 413.499 468.784 413.222 457.221C413.058 450.345 412.894 443.469 412.732 436.593C412.58 430.131 412.425 423.67 412.267 417.209C412.21 414.856 412.155 412.503 412.1 410.15C411.764 395.67 411.186 381.229 410.289 366.773C405.924 366.773 401.559 366.773 397.061 366.773ZM844.404 509.874C841.167 513.076 837.937 516.285 834.708 519.495C833.804 520.389 832.899 521.284 831.967 522.205C826.98 527.17 822.225 532.237 817.635 537.57C813.931 541.762 809.964 545.69 805.998 549.633C805.199 550.437 804.399 551.241 803.576 552.069C799.718 555.92 795.815 559.647 791.675 563.195C785.478 568.542 779.799 574.397 774.055 580.223C767.508 586.864 760.968 593.392 753.882 599.461C751.045 601.932 748.42 604.584 745.796 607.28C741.485 611.643 737.062 615.746 732.404 619.732C729.463 622.328 726.745 625.113 724 627.911C721.822 630.052 719.579 632.054 717.264 634.045C712.276 638.382 707.455 642.873 702.655 647.414C696.428 653.279 690.164 659.09 683.781 664.785C680.325 667.885 676.909 671.027 673.494 674.171C668.782 678.503 664.028 682.776 659.19 686.966C656.434 689.38 653.73 691.847 651.021 694.313C646.857 698.076 642.61 701.685 638.244 705.211C633.671 708.91 629.269 712.727 624.941 716.71C619.63 721.592 614.165 726.202 608.552 730.732C605.487 733.23 602.469 735.77 599.464 738.338C590.713 745.815 581.762 752.994 572.631 760.001C571.727 760.696 570.822 761.391 569.891 762.108C513.428 805.358 513.428 805.358 490.859 803.293C469.449 798.03 452.429 782.889 436.759 768.18C434.732 765.88 434.732 765.88 433.137 766.014C433.137 780.697 433.137 795.38 433.137 810.508C437.106 811.301 441.074 812.095 445.163 812.913C447.793 815.468 447.793 815.468 448.77 818.926C448.647 826.437 446.377 831.685 442.757 838.166C452.406 835.776 461.526 832.621 470.716 828.846C472.8 827.992 472.8 827.992 474.926 827.12C517.855 809.211 558.349 786.306 596.682 760.001C598.017 759.089 598.017 759.089 599.379 758.158C615.303 747.245 630.735 735.759 645.986 723.925C646.82 723.278 647.655 722.631 648.515 721.964C662.502 711.098 676.166 699.859 689.648 688.375C691.673 686.654 693.706 684.942 695.74 683.232C708.263 672.657 720.429 661.636 731.934 649.956C734.829 647.035 737.815 644.302 740.939 641.627C745.957 637.292 750.466 632.588 754.965 627.723C755.79 626.837 756.615 625.952 757.464 625.04C759.162 623.217 760.859 621.393 762.553 619.567C764.905 617.041 767.271 614.53 769.645 612.024C776.736 604.522 783.622 596.97 790.064 588.894C792.416 585.979 794.839 583.141 797.295 580.314C811.479 563.906 823.82 546.038 835.639 527.88C837.078 525.676 838.535 523.486 839.997 521.299C840.782 520.108 841.566 518.917 842.374 517.691C843.039 516.686 843.704 515.682 844.389 514.647C844.992 513.475 844.992 513.475 845.606 512.28C845.209 511.486 844.812 510.692 844.404 509.874ZM483.644 554.368C481.96 572.705 480.276 591.043 478.594 609.38C477.813 617.897 477.031 626.415 476.249 634.932C475.566 642.371 474.883 649.809 474.201 657.247C473.841 661.173 473.48 665.098 473.12 669.023C472.334 677.573 471.552 686.123 470.778 694.674C470.536 697.35 470.292 700.025 470.047 702.7C469.7 706.505 469.358 710.311 469.018 714.117C468.915 715.234 468.812 716.351 468.706 717.502C468.195 723.279 467.905 728.949 468.011 734.748C472.376 734.748 476.741 734.748 481.239 734.748C485.121 694.612 488.912 654.468 492.545 614.309C492.923 610.132 493.303 605.956 493.685 601.78C494.139 596.817 494.588 591.853 495.033 586.89C495.198 585.059 495.364 583.229 495.532 581.399C496.361 572.372 497.084 563.441 496.871 554.368C492.506 554.368 488.141 554.368 483.644 554.368ZM373.011 618.102C373.011 670.882 373.011 723.661 373.011 778.039C377.376 778.039 381.741 778.039 386.238 778.039C386.238 725.26 386.238 672.481 386.238 618.102C381.873 618.102 377.508 618.102 373.011 618.102ZM793.221 667.482C785.902 674.329 778.475 680.992 770.842 687.488C769.408 688.71 767.973 689.933 766.54 691.156C765.451 692.085 765.451 692.085 764.34 693.032C759.595 697.098 754.958 701.259 750.38 705.512C745.995 709.585 741.519 713.486 736.852 717.236C730.332 722.484 724.236 728.115 718.119 733.818C712.58 738.981 706.857 743.915 701.091 748.822C699.658 750.043 698.225 751.264 696.793 752.486C696.067 753.105 695.341 753.724 694.593 754.361C689.848 758.427 685.211 762.588 680.634 766.841C676.248 770.915 671.772 774.815 667.105 778.565C661.226 783.293 655.688 788.312 650.197 793.479C646.516 796.935 642.758 800.195 638.77 803.293C640.123 806.866 641.444 809.707 643.581 812.913C649.87 811.107 653.607 807.064 658.161 802.616C663.43 797.578 668.693 792.664 674.395 788.111C680.853 782.952 686.862 777.386 692.903 771.754C698.442 766.591 704.165 761.657 709.931 756.751C711.364 755.53 712.797 754.309 714.229 753.087C714.955 752.468 715.681 751.849 716.429 751.211C721.174 747.145 725.811 742.984 730.388 738.732C734.748 734.681 739.197 730.805 743.842 727.082C749.901 722.211 755.54 716.984 761.195 711.659C766.382 706.802 771.769 702.293 777.315 697.85C781.939 694.01 786.321 689.932 790.712 685.83C795.091 681.737 799.546 677.763 804.133 673.903C806.221 672.062 806.221 672.062 808.328 668.609C807.355 667.203 806.377 665.8 805.396 664.4C804.852 663.619 804.308 662.837 803.748 662.033C803.275 661.425 802.802 660.817 802.315 660.191C799.304 660.191 795.466 665.363 793.221 667.482ZM442.757 674.622C443.96 679.432 443.96 679.432 443.96 679.432L442.757 674.622ZM572.373 807.022C571.37 807.537 570.366 808.052 569.333 808.583C566.046 810.272 562.762 811.968 559.478 813.664C557.215 814.83 554.951 815.995 552.686 817.159C546.103 820.547 539.525 823.944 532.947 827.343C531.259 828.215 529.57 829.087 527.882 829.959C509.5 839.454 491.158 849.027 472.821 858.609C472.821 861.784 472.821 864.958 472.821 868.229C487.945 861.131 502.959 853.845 517.892 846.354C519.909 845.344 521.925 844.335 523.941 843.326C529.163 840.713 534.384 838.097 539.604 835.48C544.965 832.794 550.327 830.11 555.69 827.425C566.148 822.19 576.605 816.951 587.061 811.71C586.379 806.744 586.379 806.744 584.656 802.09C580.216 802.09 576.259 805.009 572.373 807.022Z" fill="#131212"/>
<path d="M1105.35 0C1106.15 0 1106.94 0 1107.76 0C1150.81 87.2658 1174.31 183.633 1198.17 277.483C1207.51 314.242 1217.19 350.858 1228.01 387.216C1228.36 388.401 1228.72 389.586 1229.08 390.807C1241.27 431.68 1254.49 472.157 1271.65 511.246C1272.51 513.482 1272.51 513.482 1272.51 515.887C1278.5 511.212 1283.29 506.088 1288.14 500.254C1288.68 499.604 1289.23 498.954 1289.79 498.285C1306.11 478.746 1320.54 458.225 1333.84 436.52C1334.31 435.757 1334.78 434.994 1335.26 434.208C1350.41 409.584 1364.03 384.118 1377.13 358.355C1377.83 356.976 1378.53 355.597 1379.26 354.177C1387.58 337.804 1395.62 321.325 1403.29 304.639C1409.03 292.183 1414.9 279.794 1420.79 267.413C1427.99 252.295 1435.17 237.17 1442.29 222.018C1442.68 221.188 1443.07 220.358 1443.47 219.503C1445.43 215.342 1447.38 211.181 1449.34 207.02C1452.92 199.391 1456.51 191.766 1460.1 184.14C1462.09 179.907 1464.08 175.674 1466.08 171.441C1466.88 169.741 1467.68 168.04 1468.48 166.34C1468.88 165.489 1469.28 164.638 1469.69 163.761C1474.28 154.01 1478.87 144.259 1483.46 134.508C1483.83 133.718 1484.2 132.929 1484.58 132.115C1485.32 130.556 1486.05 128.998 1486.79 127.44C1488.81 123.156 1490.81 118.862 1492.78 114.556C1493.22 113.614 1493.65 112.671 1494.1 111.7C1494.94 109.873 1495.78 108.043 1496.61 106.209C1499.51 99.9456 1499.51 99.9456 1502.19 98.6077C1500.51 108.765 1498.22 118.704 1495.65 128.671C1495.45 129.463 1495.24 130.255 1495.03 131.072C1470.89 224.245 1430.98 312.876 1385.84 397.612C1382.91 403.15 1380.02 408.713 1377.13 414.273C1361.37 444.49 1361.37 444.49 1353.85 458.461C1352.36 461.218 1350.88 463.976 1349.39 466.733C1349.02 467.434 1348.64 468.135 1348.25 468.858C1341.37 481.655 1334.71 494.557 1328.08 507.489C1322.94 517.527 1317.73 527.511 1312.26 537.382C1304.94 550.628 1298.01 564.081 1291.19 577.592C1283.53 592.714 1283.53 592.714 1279.19 599.655C1270.03 614.465 1270.5 626.396 1273.71 643.355C1277.07 640.39 1278.83 637.204 1280.84 633.223C1281.52 631.906 1282.19 630.589 1282.89 629.231C1283.6 627.816 1284.32 626.4 1285.06 624.941C1286.58 621.969 1288.1 618.999 1289.63 616.031C1290.01 615.285 1290.39 614.539 1290.79 613.771C1294.26 607.037 1297.86 600.384 1301.52 593.751C1306.39 584.89 1311.14 575.975 1315.8 566.994C1321.08 556.806 1326.51 546.711 1332.03 536.654C1336.34 528.782 1340.53 520.85 1344.66 512.88C1349.94 502.692 1355.37 492.597 1360.89 482.54C1365.2 474.668 1369.39 466.736 1373.52 458.766C1378.8 448.578 1384.23 438.483 1389.75 428.426C1394.07 420.554 1398.25 412.622 1402.38 404.652C1407.66 394.464 1413.09 384.369 1418.61 374.312C1422.93 366.44 1427.11 358.508 1431.24 350.538C1436.52 340.35 1441.95 330.255 1447.47 320.198C1451.79 312.326 1455.97 304.394 1460.1 296.424C1465.38 286.236 1470.81 276.141 1476.34 266.084C1481.28 257.064 1486.04 247.956 1490.77 238.824C1494.85 230.962 1499.05 223.168 1503.32 215.404C1508.49 206 1513.5 196.527 1518.42 186.994C1525.13 174.024 1532.01 161.165 1539.08 148.391C1540.18 146.4 1541.26 144.401 1542.33 142.397C1542.86 141.414 1543.39 140.431 1543.94 139.419C1544.41 138.537 1544.88 137.655 1545.37 136.746C1546.68 134.684 1546.68 134.684 1549.09 133.481C1547.57 138.298 1545.8 142.785 1543.58 147.32C1542.96 148.586 1542.35 149.853 1541.71 151.158C1541.05 152.518 1540.38 153.877 1539.69 155.277C1538.26 158.23 1536.83 161.185 1535.4 164.141C1535.03 164.896 1534.66 165.651 1534.29 166.429C1530.67 173.922 1527.17 181.467 1523.69 189.023C1517.34 202.77 1510.87 216.461 1504.37 230.135C1503.64 231.661 1503.64 231.661 1502.9 233.219C1500.93 237.366 1498.96 241.512 1496.98 245.659C1491.82 256.512 1486.67 267.373 1481.52 278.236C1481.07 279.181 1480.63 280.126 1480.16 281.099C1473.46 295.25 1466.79 309.414 1460.12 323.584C1453.27 338.161 1446.38 352.719 1439.48 367.273C1433.11 380.725 1426.75 394.186 1420.42 407.659C1413.65 422.051 1406.86 436.43 1400.05 450.8C1392.97 465.726 1385.91 480.656 1378.85 495.594C1378.44 496.483 1378.02 497.372 1377.58 498.289C1374.62 504.555 1371.67 510.822 1368.71 517.089C1365.33 524.255 1361.94 531.42 1358.56 538.585C1358.14 539.473 1357.72 540.361 1357.29 541.277C1350.21 556.281 1343.1 571.277 1336 586.271C1331.23 596.322 1326.48 606.375 1321.74 616.439C1321.34 617.277 1320.95 618.114 1320.54 618.977C1318.58 623.14 1316.63 627.308 1314.7 631.484C1310.87 639.747 1306.92 647.917 1302.69 655.983C1300.55 660.077 1298.46 664.195 1296.37 668.317C1295.36 670.291 1294.31 672.253 1293.25 674.201C1287.34 684.137 1287.34 684.137 1286.18 695.215C1288.02 700.526 1290.83 704.992 1294.15 709.495C1296.96 705.933 1299.17 702.29 1301.3 698.287C1301.99 696.994 1302.68 695.701 1303.39 694.369C1304.14 692.947 1304.9 691.526 1305.65 690.104C1306.45 688.61 1307.24 687.116 1308.04 685.622C1310.63 680.756 1313.22 675.886 1315.8 671.014C1316.24 670.183 1316.68 669.352 1317.13 668.496C1321.22 660.785 1325.3 653.072 1329.38 645.357C1335.92 632.982 1342.52 620.64 1349.15 608.31C1354.41 598.504 1359.56 588.649 1364.69 578.772C1369.29 569.931 1374.05 561.187 1378.85 552.454C1384.09 542.874 1389.12 533.187 1394.14 523.483C1398.95 514.186 1403.92 504.988 1408.97 495.815C1413.51 487.535 1417.89 479.18 1422.22 470.792C1427.69 460.213 1433.29 449.728 1439.03 439.296C1444.26 429.755 1449.27 420.106 1454.26 410.439C1458.49 402.288 1462.81 394.205 1467.24 386.163C1472.63 376.37 1477.83 366.489 1482.95 356.551C1488.63 345.527 1494.44 334.594 1500.42 323.73C1504.94 315.493 1509.3 307.178 1513.61 298.829C1519.08 288.25 1524.69 277.766 1530.43 267.333C1535.66 257.793 1540.66 248.143 1545.66 238.477C1549.88 230.325 1554.21 222.243 1558.63 214.201C1564.02 204.407 1569.22 194.526 1574.34 184.589C1579.77 174.085 1585.22 163.593 1590.8 153.173C1591.39 152.046 1591.99 150.92 1592.6 149.76C1593.15 148.738 1593.7 147.715 1594.27 146.662C1594.99 145.319 1594.99 145.319 1595.72 143.949C1597.19 141.899 1597.19 141.899 1600.8 140.696C1603.85 141.827 1603.85 141.827 1607.47 143.609C1608.78 144.247 1610.1 144.886 1611.45 145.544C1612.82 146.226 1614.19 146.908 1615.6 147.611C1616.96 148.274 1618.32 148.938 1619.72 149.621C1625.85 152.626 1631.97 155.678 1638.08 158.734C1630.29 175.367 1622.21 191.841 1613.99 208.264C1612.74 210.765 1611.49 213.265 1610.24 215.766C1607.64 220.97 1605.04 226.172 1602.44 231.374C1599.13 237.973 1595.83 244.575 1592.54 251.177C1589.96 256.331 1587.39 261.483 1584.81 266.635C1583.59 269.066 1582.38 271.497 1581.16 273.929C1575.42 285.416 1569.65 296.876 1563.63 308.22C1556.99 320.737 1550.67 333.407 1544.35 346.089C1542.23 350.351 1540.1 354.612 1537.98 358.873C1533.46 367.918 1528.95 376.966 1524.44 386.013C1519.56 395.791 1514.68 405.569 1509.8 415.345C1507.37 420.222 1504.94 425.102 1502.5 429.982C1496.43 442.156 1490.29 454.281 1483.91 466.298C1477.03 479.296 1470.53 492.483 1463.96 505.642C1462.52 508.521 1461.09 511.4 1459.65 514.279C1456.28 521.015 1452.92 527.752 1449.55 534.49C1445.72 542.177 1441.88 549.864 1438.04 557.55C1430.16 573.323 1422.28 589.098 1414.4 604.874C1415.74 603.742 1417.08 602.607 1418.41 601.471C1419.15 600.839 1419.9 600.208 1420.66 599.557C1479.3 548.015 1515.55 462.417 1547.44 392.928C1559.24 367.197 1571.92 341.911 1585.72 317.189C1587.71 313.617 1589.66 310.029 1591.61 306.439C1605.43 281.206 1620.46 254.337 1641.68 234.494C1643.39 239.598 1641.19 242.763 1639.07 247.421C1638.44 248.843 1638.44 248.843 1637.8 250.293C1636.4 253.45 1634.98 256.598 1633.57 259.747C1632.58 261.972 1631.59 264.197 1630.6 266.422C1628.53 271.083 1626.45 275.741 1624.37 280.398C1621.39 287.056 1618.45 293.727 1615.51 300.403C1605.1 324.082 1594.55 347.693 1583.86 371.246C1578.21 383.702 1572.62 396.184 1567.09 408.696C1558.89 427.259 1550.43 445.694 1541.87 464.093C1535.97 476.77 1530.13 489.47 1524.36 502.208C1516.84 518.819 1509.22 535.387 1501.56 551.937C1500.65 553.906 1499.74 555.875 1498.83 557.844C1498.39 558.798 1497.95 559.752 1497.49 560.735C1494.96 566.213 1492.45 571.7 1489.95 577.197C1476.17 607.52 1461.37 637.456 1445.1 666.522C1443.08 670.152 1441.08 673.797 1439.09 677.444C1428.92 696.026 1418.16 714.159 1407.07 732.204C1405.08 735.459 1403.14 738.728 1401.21 742.019C1390.55 760.251 1378.71 777.688 1366.91 795.199C1364.16 799.286 1361.43 803.388 1358.71 807.492C1355.03 813.014 1351.28 818.477 1347.44 823.886C1346.53 825.162 1346.53 825.162 1345.61 826.463C1343.69 829.164 1341.77 831.862 1339.85 834.558C1339.19 835.475 1338.54 836.391 1337.87 837.335C1329.52 849.011 1321 860.51 1312.19 871.837C1310.75 873.726 1309.31 875.615 1307.87 877.504C1302.07 885.106 1296.09 892.547 1290.01 899.924C1285.96 904.857 1282.17 909.897 1278.52 915.128C1279.76 919.112 1280.94 919.944 1284.68 921.967C1289.38 923.789 1293.96 924.309 1298.96 924.748C1297.6 945.563 1287.05 961.158 1272.35 975.32C1258.37 987.449 1233.79 1001.71 1214.78 1001.71C1214.57 996.494 1214.42 991.281 1214.32 986.062C1214.28 984.294 1214.22 982.526 1214.15 980.759C1213.52 965.318 1217.19 955.346 1227.59 943.646C1229.07 942.119 1230.56 940.605 1232.07 939.103C1233.65 937.47 1235.23 935.834 1236.81 934.195C1237.57 933.411 1238.32 932.627 1239.1 931.819C1251.1 919.478 1251.1 919.478 1254.62 903.403C1254.6 901.996 1254.57 900.588 1254.55 899.138C1254.52 898.065 1254.5 896.992 1254.47 895.887C1250.83 895.887 1248.83 897.834 1245.82 899.833C1243.97 901.054 1243.97 901.054 1242.08 902.299C1240.78 903.16 1239.49 904.02 1238.16 904.906C1235.6 906.6 1233.05 908.291 1230.49 909.979C1229.35 910.735 1228.21 911.491 1227.04 912.269C1224.4 913.925 1224.4 913.925 1223.2 913.925C1223.32 876.436 1247.78 841.797 1267.7 811.71C1266.38 809.376 1265.05 807.047 1263.71 804.72C1262.97 803.423 1262.23 802.125 1261.47 800.789C1259.69 797.945 1258.17 795.86 1255.67 793.672C1254.77 794.374 1254.77 794.374 1253.84 795.091C1246.87 800.25 1239.57 804.478 1231.92 808.553C1230.94 809.083 1229.96 809.613 1228.95 810.159C1228 810.655 1227.05 811.152 1226.08 811.663C1225.23 812.107 1224.39 812.551 1223.52 813.008C1220.25 814.339 1217.08 814.84 1213.58 815.318C1171.3 729.282 1135.44 640.045 1100.52 550.816C1098.35 545.284 1096.18 539.755 1094 534.227C1064.48 459.26 1035 384.179 1009.15 307.849C1008.62 306.283 1008.62 306.283 1008.08 304.685C1000.1 281.09 992.374 257.454 986.002 233.367C985.782 232.538 985.562 231.709 985.335 230.854C981.085 214.737 978.72 199.797 978.853 183.104C978.857 181.454 978.861 179.803 978.863 178.152C978.872 173.858 978.896 169.564 978.923 165.27C978.948 160.868 978.958 156.466 978.97 152.064C978.996 143.465 979.037 134.865 979.088 126.266C991.347 127.846 996.819 133.838 1004.3 143.334C1008.2 148.713 1011.28 154.46 1014.41 160.313C1024.25 178.483 1024.25 178.483 1038.5 193.168C1043.33 197.282 1045.29 201.551 1047.48 207.404C1047.87 208.393 1048.27 209.381 1048.67 210.4C1049.95 213.638 1051.2 216.888 1052.44 220.139C1053.34 222.435 1054.25 224.73 1055.15 227.024C1057 231.698 1058.83 236.377 1060.66 241.059C1063.97 249.557 1067.4 258.01 1070.85 266.458C1071.93 269.114 1073.01 271.771 1074.08 274.429C1078.52 285.369 1082.97 296.302 1087.42 307.233C1087.96 308.552 1088.5 309.871 1089.05 311.229C1090.16 313.955 1091.28 316.68 1092.39 319.405C1101.93 342.82 1111.45 366.247 1120.91 389.696C1121.44 391.01 1121.97 392.323 1122.52 393.677C1124.59 398.82 1126.67 403.964 1128.74 409.107C1133.14 420.002 1137.54 430.893 1141.96 441.781C1142.3 442.641 1142.65 443.502 1143.01 444.389C1147.71 455.981 1152.43 467.566 1157.15 479.148C1157.69 480.471 1158.23 481.793 1158.79 483.155C1159.33 484.498 1159.88 485.842 1160.45 487.226C1179.52 533.995 1198.5 580.8 1217.19 627.722C1211.54 611.55 1205.86 595.388 1200.13 579.245C1199.72 578.105 1199.32 576.965 1198.9 575.79C1191.54 555.088 1184.05 534.434 1176.53 513.792C1168.1 490.662 1159.74 467.507 1151.43 444.336C1149.08 437.802 1146.74 431.268 1144.39 424.734C1144.11 423.943 1143.82 423.152 1143.53 422.338C1137.41 405.3 1131.26 388.275 1125.09 371.254C1120.41 358.332 1115.74 345.407 1111.08 332.477C1110.53 330.946 1109.98 329.416 1109.43 327.885C1108.59 325.558 1107.75 323.232 1106.91 320.905C1095.87 290.262 1084.79 259.636 1073.63 229.036C1072.73 226.549 1071.83 224.061 1070.93 221.572C1068.6 215.12 1066.21 208.696 1063.74 202.296C1062.97 200.279 1062.97 200.279 1062.19 198.221C1061.23 195.667 1060.24 193.119 1059.23 190.58C1053.61 175.595 1058.09 163.19 1064.47 149.114C1068.25 141.38 1072.33 133.803 1076.49 126.266C1077.29 126.266 1078.08 126.266 1078.9 126.266C1079.33 127.456 1079.76 128.645 1080.2 129.871C1081.8 134.277 1083.4 138.683 1085 143.089C1085.69 144.997 1086.38 146.905 1087.07 148.813C1088.07 151.554 1089.06 154.294 1090.05 157.034C1090.36 157.89 1090.67 158.745 1090.99 159.627C1092.59 164.061 1092.59 164.061 1094.53 168.355C1098.55 159.256 1098.28 150.475 1098.14 140.696C1098.93 140.696 1099.73 140.696 1100.54 140.696C1100.89 141.775 1100.89 141.775 1101.25 142.876C1120.83 203.078 1141.21 262.863 1163.08 322.279C1163.51 323.464 1163.95 324.65 1164.4 325.871C1179.65 367.289 1195.28 408.572 1211.18 449.747C1215.04 443.955 1213.12 437.976 1211.85 431.365C1211.25 428.627 1210.59 425.908 1209.9 423.188C1209.65 422.159 1209.4 421.131 1209.14 420.071C1208.31 416.669 1207.46 413.27 1206.62 409.871C1206.02 407.434 1205.42 404.997 1204.82 402.559C1203.2 395.984 1201.57 389.412 1199.95 382.84C1198.23 375.894 1196.52 368.946 1194.8 361.998C1191.65 349.204 1188.49 336.411 1185.32 323.62C1182.31 311.443 1179.31 299.264 1176.3 287.085C1171.2 266.411 1166.09 245.74 1160.97 225.07C1157.05 209.239 1153.13 193.408 1149.22 177.576C1146.3 165.759 1143.38 153.942 1140.45 142.124C1140.14 140.843 1139.82 139.562 1139.49 138.242C1132.8 111.209 1126.11 84.1782 1119.35 57.1626C1119.1 56.1736 1118.86 55.1845 1118.6 54.1655C1116.31 45.0132 1114.02 35.8616 1111.72 26.7114C1111.11 24.282 1110.5 21.8524 1109.89 19.4228C1109.16 16.5169 1108.43 13.6114 1107.7 10.7061C1107.23 8.83104 1107.23 8.83104 1106.75 6.91809C1106.48 5.83442 1106.21 4.75075 1105.93 3.63424C1105.35 1.20253 1105.35 1.20253 1105.35 0ZM1064.47 380.001C1065.27 387.158 1067.8 393.567 1070.29 400.274C1070.76 401.571 1071.24 402.867 1071.72 404.203C1073.28 408.463 1074.85 412.721 1076.42 416.978C1078.33 422.189 1080.23 427.401 1082.14 432.613C1082.98 434.913 1083.82 437.212 1084.66 439.512C1090.98 456.773 1097.19 474.073 1103.4 491.375C1104.72 495.057 1106.04 498.738 1107.36 502.419C1107.75 503.512 1108.14 504.605 1108.54 505.731C1108.9 506.724 1109.26 507.716 1109.62 508.739C1109.93 509.602 1110.24 510.465 1110.56 511.355C1111.36 513.562 1111.36 513.562 1112.57 515.887C1115.74 515.887 1118.92 515.887 1122.19 515.887C1114.41 491.885 1105.99 468.119 1097.54 444.348C1096.89 442.493 1096.89 442.493 1096.21 440.602C1095.55 438.747 1095.55 438.747 1094.88 436.855C1090.29 423.93 1085.75 410.987 1081.23 398.039C1080.86 396.987 1080.49 395.936 1080.11 394.853C1078.1 389.101 1076.1 383.349 1074.09 377.595C1070.62 377.595 1067.72 378.869 1064.47 380.001ZM1449.28 596.456C1441.82 607.414 1434.69 618.538 1427.75 629.829C1423.02 637.513 1418.21 645.146 1413.35 652.75C1406.61 663.303 1399.95 673.904 1393.33 684.528C1386.94 694.76 1380.51 704.962 1374.06 715.153C1371.07 719.879 1368.09 724.608 1365.1 729.336C1363.9 731.24 1362.7 733.144 1361.49 735.048C1360.9 735.991 1360.3 736.933 1359.69 737.904C1339.85 769.321 1339.85 769.321 1338.04 772.182C1336.85 774.069 1335.66 775.956 1334.47 777.844C1331.3 782.869 1328.11 787.884 1324.91 792.887C1324.24 793.937 1323.57 794.986 1322.88 796.068C1321.59 798.092 1320.29 800.113 1318.99 802.132C1318.41 803.037 1317.84 803.943 1317.24 804.875C1316.73 805.674 1316.22 806.474 1315.69 807.297C1314.4 809.276 1314.4 809.276 1314.59 811.71C1317.77 812.504 1320.94 813.297 1324.21 814.115C1324.61 813.47 1325.01 812.824 1325.42 812.159C1334.36 797.665 1343.38 783.217 1352.49 768.831C1355.5 764.087 1358.5 759.338 1361.49 754.59C1362.7 752.686 1363.9 750.782 1365.1 748.878C1365.7 747.935 1366.29 746.993 1366.9 746.022C1372.32 737.453 1372.32 737.453 1374.12 734.599C1375.32 732.69 1376.53 730.781 1377.74 728.872C1380.69 724.186 1383.66 719.5 1386.62 714.817C1393.26 704.32 1399.86 693.802 1406.44 683.264C1412.93 672.858 1419.48 662.493 1426.08 652.156C1432.22 642.533 1438.27 632.855 1444.29 623.159C1448.19 616.899 1452.16 610.741 1456.41 604.716C1457.99 602.378 1457.99 602.378 1457.7 598.862C1454.92 598.068 1452.14 597.274 1449.28 596.456ZM1218.39 630.127C1219.59 632.532 1219.59 632.532 1219.59 632.532L1218.39 630.127ZM1219.59 633.735C1220.8 636.14 1220.8 636.14 1220.8 636.14L1219.59 633.735ZM1220.8 636.14C1222 638.545 1222 638.545 1222 638.545L1220.8 636.14ZM1222 639.748C1223.2 642.153 1223.2 642.153 1223.2 642.153L1222 639.748ZM1196.75 719.115C1199.52 729.108 1203.22 738.552 1207.19 748.126C1207.81 749.635 1208.44 751.145 1209.06 752.654C1210.56 756.308 1212.07 759.959 1213.58 763.609C1216.76 762.418 1219.93 761.228 1223.2 760.001C1218.47 746.154 1213.27 732.591 1207.57 719.115C1204 719.115 1200.43 719.115 1196.75 719.115Z" fill="#131212"/>
<path d="M-132.053 25.2538C-130.53 25.2428 -129.006 25.2317 -127.437 25.2204C-126.58 25.2142 -125.723 25.2079 -124.84 25.2015C-114.829 25.419 -105.487 30.9808 -97.1796 36.0766C-96.335 36.5764 -95.4904 37.0761 -94.6201 37.591C-92.3695 39.6842 -92.3695 39.6842 -91.8046 42.6277C-92.0607 52.0258 -93.285 60.9751 -95.0752 70.1985C-95.3217 71.5177 -95.5682 72.8369 -95.8221 74.196C-96.0779 75.5648 -96.3336 76.9335 -96.5972 78.3438C-96.8564 79.7517 -97.1156 81.1596 -97.3827 82.6101C-98.046 86.1417 -98.7951 89.6426 -99.5922 93.1462C-103.694 112.04 -103.833 130.716 -103.68 149.948C-103.649 154.461 -103.647 158.974 -103.641 163.487C-103.627 171.987 -103.587 180.487 -103.539 188.986C-103.484 198.683 -103.458 208.379 -103.434 218.075C-103.384 237.979 -103.3 257.882 -103.192 277.786C-102.922 276.246 -102.652 274.706 -102.373 273.119C-99.7996 258.458 -97.218 243.797 -94.6291 229.138C-93.299 221.606 -91.9715 214.073 -90.6503 206.538C-89.3701 199.239 -88.0827 191.941 -86.7906 184.644C-86.304 181.889 -85.8199 179.133 -85.3384 176.377C-82.7171 161.381 -79.8667 146.465 -76.576 131.601C-76.2802 130.264 -75.9845 128.927 -75.6798 127.549C-73.3049 117.022 -70.4162 106.774 -66.8908 96.5791C-66.4741 95.3509 -66.4741 95.3509 -66.0489 94.098C-46.0213 35.2412 -46.0213 35.2412 -31.0403 25.2538C-31.7599 34.6221 -33.3495 43.7031 -35.1787 52.9121C-35.6276 55.2152 -36.0765 57.5182 -36.5245 59.8215C-36.999 62.2584 -37.4755 64.6948 -37.9523 67.1313C-46.9093 112.974 -55.7983 159.059 -59.9011 205.634C-59.5521 204.549 -59.2032 203.464 -58.8436 202.347C-46.0909 162.845 -31.5912 124.29 -14.2048 86.583C-13.808 86.583 -13.4112 86.583 -13.0023 86.583C-13.7092 95.7175 -14.8771 104.687 -16.3938 113.72C-16.8397 116.431 -17.2852 119.143 -17.7305 121.855C-17.9643 123.269 -18.1981 124.684 -18.439 126.141C-35.9224 232.28 -47.8867 339.281 -57.1203 502.133C-57.1758 503.344 -57.1758 503.344 -57.2325 504.579C-59.0423 544.095 -60.1447 583.583 -60.19 623.141C-60.1967 628.171 -60.2261 633.201 -60.2597 638.231C-60.2821 642.182 -60.2884 646.133 -60.2902 650.084C-60.2938 651.942 -60.3033 653.799 -60.3193 655.656C-60.8011 672.008 -60.8011 672.008 -53.5361 686.083C-31.9752 697.782 12.2978 679.823 33.8965 673.419C92.032 655.791 149.867 634.84 204.656 608.482C205.551 608.054 206.445 607.626 207.367 607.185C225.058 598.671 242.415 589.298 258.77 578.419C258.992 579.692 259.214 580.964 259.442 582.276C262.019 596.075 265.966 609.143 270.586 622.395C280.858 651.973 280.858 651.973 275.079 665.377C268.591 676.115 257.848 681.687 246.745 686.647C250.812 693.126 254.93 699.551 259.264 705.855C265.18 714.513 270.506 723.45 275.681 732.569C276.369 733.777 277.058 734.985 277.767 736.229C278.407 737.37 279.047 738.51 279.706 739.685C280.279 740.704 280.851 741.723 281.44 742.772C282.71 745.347 283.382 747.603 284.023 750.381C275.13 754.525 266.157 758.326 257.013 761.881C255.711 762.39 254.409 762.9 253.067 763.426C250.267 764.522 247.465 765.616 244.664 766.709C237.883 769.355 231.106 772.01 224.329 774.666C221.988 775.582 219.648 776.499 217.307 777.415C203.12 782.972 188.955 788.582 174.794 794.205C145.857 805.694 116.886 817.091 87.8761 828.395C84.3526 829.768 80.8297 831.143 77.3069 832.518C-82.8023 894.986 -82.8024 894.986 -95.9771 892.28C-99.8348 889.795 -103.065 887.062 -106.424 883.942C-110.539 880.266 -114.208 879.831 -119.647 879.921C-126.994 880.801 -133.487 883.599 -138.517 889.048C-139.558 890.115 -140.6 891.181 -141.673 892.28C-144.023 892.208 -144.023 892.208 -146.483 891.078C-153.196 883.662 -157.745 874.22 -162.267 865.374C-162.891 864.163 -163.515 862.953 -164.159 861.706C-175.344 839.823 -175.344 839.823 -175.344 833.356C-176.659 833.927 -177.973 834.497 -179.328 835.085C-186.343 837.728 -194.581 839.37 -201.8 836.964C-201.857 821.968 -201.899 806.972 -201.925 791.977C-201.937 785.006 -201.954 778.036 -201.981 771.065C-202.13 732.836 -201.392 694.762 -199.395 656.584C-199.306 654.848 -199.217 653.112 -199.127 651.376C-198.615 641.607 -198.021 631.846 -197.366 622.086C-197.268 620.61 -197.17 619.135 -197.069 617.614C-193.397 562.842 -188.27 508.155 -182.175 453.602C-181.852 450.716 -181.531 447.831 -181.21 444.946C-172.94 370.697 -164.038 296.517 -155.284 222.324C-153.506 207.256 -151.73 192.187 -149.955 177.119C-149.765 175.509 -149.765 175.509 -149.571 173.866C-148.936 168.476 -148.301 163.086 -147.667 157.696C-142.466 113.548 -137.261 69.4008 -132.053 25.2538ZM-140.471 354.748C-141.891 357.588 -141.873 359.402 -141.953 362.572C-141.985 363.719 -142.016 364.867 -142.049 366.049C-142.093 367.954 -142.093 367.954 -142.138 369.897C-142.173 371.239 -142.208 372.581 -142.245 373.964C-142.363 378.492 -142.473 383.021 -142.583 387.55C-142.665 390.785 -142.748 394.02 -142.832 397.255C-143.035 405.154 -143.232 413.053 -143.427 420.951C-143.655 430.162 -143.888 439.373 -144.122 448.583C-144.54 465.038 -144.952 481.493 -145.361 497.948C-145.757 513.882 -146.156 529.815 -146.561 545.749C-146.586 546.727 -146.61 547.706 -146.636 548.714C-146.661 549.691 -146.686 550.668 -146.711 551.674C-147.172 569.837 -147.629 587.999 -148.085 606.162C-148.245 612.565 -148.407 618.968 -148.569 625.371C-148.767 633.201 -148.963 641.032 -149.156 648.862C-149.255 652.849 -149.355 656.836 -149.456 660.823C-149.878 677.452 -150.214 694.064 -150.091 710.698C-145.726 710.698 -141.361 710.698 -136.863 710.698C-135.886 692.373 -135.332 674.063 -134.972 655.716C-134.913 652.827 -134.854 649.938 -134.794 647.049C-134.634 639.277 -134.479 631.505 -134.325 623.732C-134.228 618.857 -134.129 613.981 -134.03 609.105C-134.014 608.29 -133.997 607.475 -133.98 606.636C-133.947 604.979 -133.913 603.322 -133.879 601.666C-133.566 586.201 -133.257 570.737 -132.949 555.273C-132.686 542.08 -132.42 528.888 -132.151 515.695C-131.837 500.289 -131.525 484.883 -131.217 469.477C-131.184 467.825 -131.151 466.173 -131.117 464.521C-131.093 463.303 -131.093 463.303 -131.068 462.06C-130.955 456.409 -130.84 450.759 -130.725 445.108C-130.569 437.458 -130.416 429.809 -130.266 422.159C-130.211 419.38 -130.155 416.601 -130.097 413.822C-129.691 394.129 -129.581 374.446 -129.648 354.748C-133.22 354.748 -136.791 354.748 -140.471 354.748ZM-117.623 645.761C-117.623 662.031 -117.623 678.302 -117.623 695.065C-113.654 695.065 -109.686 695.065 -105.597 695.065C-105.597 678.795 -105.597 662.524 -105.597 645.761C-109.566 645.761 -113.534 645.761 -117.623 645.761ZM199.625 691.119C198.482 691.641 198.482 691.641 197.315 692.173C194.775 693.333 192.237 694.5 189.7 695.666C187.907 696.486 186.114 697.306 184.321 698.125C180.56 699.845 176.801 701.567 173.042 703.291C167.651 705.763 162.256 708.229 156.86 710.693C146.334 715.5 135.811 720.314 125.289 725.128C118.224 728.361 111.16 731.593 104.094 734.824C103.223 735.222 102.351 735.621 101.453 736.032C87.9456 742.208 74.4282 748.361 60.9048 754.502C48.0336 760.346 35.1754 766.219 22.3221 772.102C2.96199 780.964 -16.4359 789.741 -35.8504 798.483C-35.8504 801.657 -35.8504 804.832 -35.8504 808.103C-25.3628 804.22 -15.2105 799.896 -5.11069 795.101C-2.13234 793.702 0.846863 792.306 3.82846 790.915C4.99345 790.372 4.99345 790.372 6.18199 789.817C15.4177 785.523 24.7317 781.406 34.0468 777.288C49.9638 770.246 65.8442 763.128 81.6972 755.943C85.9718 754.006 90.2464 752.069 94.5211 750.132C95.5795 749.653 96.638 749.173 97.7286 748.679C113.876 741.365 130.047 734.101 146.215 726.833C153.733 723.453 161.248 720.068 168.763 716.682C172.069 715.193 175.374 713.705 178.68 712.216C180.792 711.265 182.904 710.313 185.016 709.361C187.944 708.041 190.872 706.722 193.8 705.404C194.656 705.018 195.512 704.632 196.394 704.234C201.53 701.923 206.688 699.674 211.871 697.47C211.189 692.504 211.189 692.504 209.466 687.85C205.752 687.85 202.99 689.577 199.625 691.119ZM21.8362 698.235C20.8088 698.665 19.7814 699.094 18.7229 699.537C17.6056 700.006 16.4883 700.476 15.3371 700.96C14.1967 701.438 13.0564 701.915 11.8815 702.407C9.46402 703.42 7.04694 704.434 4.63025 705.449C0.923096 707.006 -2.78537 708.56 -6.49406 710.113C-8.83737 711.095 -11.1806 712.078 -13.5237 713.061C-15.196 713.761 -15.196 713.761 -16.9022 714.477C-18.4489 715.126 -18.4489 715.126 -20.027 715.789C-20.9366 716.171 -21.8462 716.553 -22.7834 716.947C-24.3541 717.623 -25.9032 718.351 -27.4327 719.115C-27.4327 722.687 -27.4327 726.259 -27.4327 729.938C-19.9497 727.517 -12.6538 724.838 -5.37843 721.854C-3.84851 721.23 -3.84851 721.23 -2.28769 720.593C-0.153778 719.72 1.97935 718.846 4.11177 717.97C7.3833 716.628 10.659 715.296 13.9349 713.965C16.0153 713.113 18.0955 712.26 20.1754 711.407C21.1549 711.01 22.1344 710.613 23.1435 710.204C24.0474 709.83 24.9512 709.457 25.8824 709.072C26.6776 708.747 27.4728 708.421 28.292 708.086C30.5333 707.1 30.5333 707.1 32.694 704.685C30.3129 700.518 30.3129 700.518 27.8838 696.267C25.725 696.267 23.8026 697.411 21.8362 698.235ZM165.282 746.469C157.808 750.475 150.108 753.994 142.411 757.547C138.15 759.52 133.904 761.526 129.658 763.529C127.939 764.339 126.22 765.148 124.501 765.957C115.541 770.178 106.586 774.41 97.6307 778.641C83.556 785.29 69.4773 791.931 55.3918 798.558C54.5519 798.953 53.7121 799.348 52.8469 799.755C46.0877 802.935 39.3282 806.114 32.5686 809.293C27.4932 811.68 22.418 814.067 17.3429 816.455C15.6594 817.247 13.9758 818.039 12.2922 818.83C2.323 823.52 -7.64191 828.218 -17.6011 832.929C-18.583 833.393 -19.5649 833.857 -20.5766 834.336C-25.3232 836.58 -30.0692 838.826 -34.8141 841.074C-43.1349 845.012 -51.4632 848.914 -59.9011 852.597C-54.9173 854.258 -51.4829 852.49 -46.7202 850.826C-45.2689 850.332 -45.2689 850.332 -43.7883 849.828C-40.5868 848.734 -37.3917 847.622 -34.197 846.509C-33.0935 846.128 -31.9901 845.746 -30.8533 845.354C23.7341 826.491 77.2474 804.751 130.103 781.501C132.367 780.505 134.633 779.511 136.898 778.517C171.73 763.217 206.253 747.217 240.732 731.141C240.732 730.744 240.732 730.347 240.732 729.938C210.967 726.903 191.298 732.418 165.282 746.469ZM-150.091 746.774C-150.091 758.282 -150.091 769.79 -150.091 781.647C-145.726 781.647 -141.361 781.647 -136.863 781.647C-136.863 770.139 -136.863 758.631 -136.863 746.774C-141.228 746.774 -145.594 746.774 -150.091 746.774Z" fill="#131212"/>
<path d="M753.011 929.558C756.583 929.558 760.154 929.558 763.834 929.558C767.405 939.876 770.977 950.194 774.657 960.824C778.228 950.506 781.8 940.188 785.479 929.558C789.051 929.558 792.622 929.558 796.302 929.558C798.659 941.799 801.011 954.041 803.217 966.311C803.37 967.146 803.523 967.981 803.681 968.842C804.364 972.685 804.72 976.139 804.72 980.065C801.148 980.065 797.577 980.065 793.897 980.065C792.31 971.334 790.722 962.604 789.087 953.609C786.367 961.864 786.367 961.864 783.655 970.122C783.316 971.145 782.977 972.167 782.628 973.22C782.109 974.798 782.109 974.798 781.578 976.407C780.669 978.862 780.669 978.862 779.467 980.065C776.255 980.234 773.064 980.116 769.846 980.065C769.598 979.342 769.349 978.62 769.093 977.876C767.97 974.621 766.841 971.368 765.713 968.114C765.321 966.977 764.93 965.84 764.527 964.669C764.151 963.588 763.775 962.506 763.388 961.392C763.041 960.391 762.695 959.39 762.338 958.358C761.623 956.046 761.623 956.046 760.226 954.811C758.639 963.145 757.052 971.478 755.416 980.065C751.845 980.065 748.273 980.065 744.593 980.065C745.595 973.451 746.6 966.838 747.61 960.225C747.953 957.975 748.294 955.725 748.635 953.475C749.125 950.242 749.618 947.01 750.113 943.777C750.264 942.77 750.416 941.763 750.572 940.725C751.164 936.877 751.777 933.259 753.011 929.558Z" fill="#131212"/>
<path d="M689.277 929.558C692.848 929.558 696.42 929.558 700.099 929.558C703.671 939.876 707.242 950.194 710.922 960.824C714.494 950.506 718.065 940.188 721.745 929.558C725.317 929.558 728.888 929.558 732.568 929.558C734.925 941.799 737.276 954.041 739.482 966.311C739.636 967.146 739.789 967.981 739.947 968.842C740.629 972.685 740.986 976.139 740.986 980.065C737.414 980.065 733.843 980.065 730.163 980.065C728.575 971.334 726.988 962.604 725.353 953.609C722.633 961.864 722.633 961.864 719.92 970.122C719.582 971.145 719.243 972.167 718.894 973.22C718.374 974.798 718.374 974.798 717.844 976.407C716.935 978.862 716.935 978.862 715.732 980.065C712.521 980.234 709.33 980.116 706.112 980.065C705.863 979.342 705.615 978.62 705.358 977.876C704.235 974.621 703.107 971.368 701.978 968.114C701.587 966.977 701.196 965.84 700.792 964.669C700.416 963.588 700.04 962.506 699.653 961.392C699.307 960.391 698.96 959.39 698.604 958.358C697.888 956.046 697.888 956.046 696.492 954.811C694.904 963.145 693.317 971.478 691.682 980.065C688.11 980.065 684.539 980.065 680.859 980.065C681.86 973.451 682.866 966.838 683.875 960.225C684.218 957.975 684.56 955.725 684.901 953.475C685.39 950.242 685.884 947.01 686.378 943.777C686.53 942.77 686.682 941.763 686.838 940.725C687.429 936.877 688.043 933.259 689.277 929.558Z" fill="#131212"/>
<path d="M808.328 929.558C812.586 928.71 816.134 928.413 820.353 929.558C823.981 933.556 826.402 937.955 828.771 942.786C831.874 939.852 834.107 937.204 836.136 933.466C837.625 931.263 837.625 931.263 839.593 929.558C843.692 928.834 847.502 929.055 851.619 929.558C843.559 943.704 843.559 943.704 839.518 948.648C836.747 952.156 836.747 952.156 837.86 955.666C839.985 960.516 842.725 964.618 845.756 968.941C851.619 977.355 851.619 977.355 851.619 980.065C847.319 981.016 843.853 981.295 839.593 980.065C835.587 975.688 832.755 970.857 829.973 965.634C827.151 969.053 824.749 972.362 822.608 976.232C821.119 978.402 821.119 978.402 819.15 980.065C815.051 980.782 811.242 980.568 807.125 980.065C811.265 970.886 816.934 962.976 822.758 954.811C821.951 953.546 821.951 953.546 821.128 952.256C819.621 949.891 818.117 947.525 816.614 945.158C815.231 942.983 813.842 940.812 812.442 938.648C811.903 937.806 811.364 936.964 810.808 936.097C810.326 935.351 809.844 934.606 809.347 933.838C808.328 931.963 808.328 931.963 808.328 929.558Z" fill="#131212"/>
<path d="M855.226 929.558C858.798 929.558 862.369 929.558 866.049 929.558C870.48 939.852 874.396 950.244 878.074 960.824C882.505 950.53 886.422 940.138 890.1 929.558C893.671 929.558 897.243 929.558 900.923 929.558C900.134 935.723 898.321 941.155 896.183 946.948C895.838 947.899 895.492 948.849 895.137 949.829C894.04 952.845 892.934 955.857 891.828 958.87C891.08 960.922 890.333 962.975 889.585 965.028C887.759 970.043 885.925 975.054 884.087 980.064C880.516 980.064 876.944 980.064 873.264 980.064C868.475 969.128 864.569 958.027 860.863 946.694C860.312 945.022 859.76 943.349 859.207 941.677C857.874 937.64 856.548 933.599 855.226 929.558Z" fill="#131212"/>
<path d="M575.2 942.364C579.833 944.716 582.531 947.854 585.102 952.2C585.858 954.812 585.858 954.812 585.858 964.432C576.334 964.432 566.81 964.432 556.997 964.432C559.845 970.75 559.845 970.75 564.739 971.572C569.03 971.647 570.235 971.161 573.833 969.242C577.45 969.507 579.265 969.944 582.025 972.324C582.496 972.894 582.968 973.465 583.453 974.052C576.201 980.201 572.795 981.72 563.071 981.592C557.569 981.106 555.255 980.016 550.985 976.457C546.807 970.932 545.435 965.41 545.789 958.542C546.841 951.64 550.676 947.266 555.795 942.787C561.958 940.732 568.938 940.463 575.2 942.364ZM558.2 953.609C557.803 954.8 557.406 955.99 556.997 957.217C562.95 957.217 568.903 957.217 575.035 957.217C573.053 952.258 573.053 952.258 569.023 950.002C563.859 950.002 562.263 950.644 558.2 953.609Z" fill="#131212"/>
<path d="M608.707 941.584C611.547 942.903 613.475 944.386 615.922 946.394C614.762 949.295 613.849 950.952 611.337 952.857C607.763 953.879 605.943 952.828 602.694 951.204C604.1 955.422 604.832 955.662 608.557 957.743C615.254 961.775 615.254 961.775 617.125 965.634C617.665 969.87 617.392 972.261 615.621 976.156C612.812 979.769 610.391 981.028 605.86 981.671C598.753 981.782 594.941 981.067 589.466 976.457C590.646 973.506 591.538 971.892 594.126 969.993C597.489 969.004 598.479 970.047 601.492 971.647C604.134 971.288 604.134 971.288 606.302 970.444C603.624 967.561 601.12 965.392 597.809 963.229C594.471 960.956 592.543 959.553 590.669 956.014C589.965 951.291 590.253 949.423 592.924 945.417C597.554 940.65 602.334 940.762 608.707 941.584Z" fill="#131212"/>
<path d="M624.34 928.356C627.911 928.356 631.483 928.356 635.163 928.356C635.163 933.118 635.163 937.88 635.163 942.786C637.147 942.786 639.131 942.786 641.175 942.786C641.175 945.564 641.175 948.342 641.175 951.204C639.191 951.204 637.207 951.204 635.163 951.204C635.163 960.728 635.163 970.252 635.163 980.065C631.591 980.065 628.02 980.065 624.34 980.065C624.34 970.541 624.34 961.017 624.34 951.204C622.753 951.204 621.165 951.204 619.53 951.204C619.53 948.426 619.53 945.648 619.53 942.786C621.117 942.786 622.704 942.786 624.34 942.786C624.34 938.024 624.34 933.262 624.34 928.356Z" fill="#131212"/>
<path d="M649.517 970.219C653.2 970.444 653.2 970.444 655.605 972.849C655.906 975.856 655.906 975.856 655.605 978.862C653.2 981.267 653.2 981.267 649.593 981.643C648.402 981.519 647.212 981.395 645.985 981.267C643.58 977.659 643.58 977.659 643.956 974.503C645.143 970.4 645.121 970.499 649.517 970.219Z" fill="#131212"/>
</svg>
